<?xml version="1.0" encoding="utf-8"?>
<!-- Generator: Adobe Illustrator 16.0.0, SVG Export Plug-In . SVG Version: 6.00 Build 0)  -->
<!DOCTYPE svg PUBLIC "-//W3C//DTD SVG 1.1//EN" "http://www.w3.org/Graphics/SVG/1.1/DTD/svg11.dtd">
<svg version="1.1" id="图层_1" xmlns="http://www.w3.org/2000/svg" xmlns:xlink="http://www.w3.org/1999/xlink" x="0px" y="0px"
	 width="203.316px" height="203.329px" viewBox="0 0 203.316 203.329" enable-background="new 0 0 203.316 203.329"
	 xml:space="preserve">
<path fill="#FF6666" d="M131.091,32.719c18.7,5.758,34.724,16.4,46.004,30.149c9.252,11.276,15.321,24.628,17.089,39.089
	c1.638,0.504,3.157,1.467,4.468,2.758c1.407,1.385,2.587,3.166,3.404,5.158c0.81,1.969,1.271,4.164,1.262,6.406
	c-0.017,3.594-1.233,7.289-4.17,10.356c-0.521,0.625-1.304,1.022-2.181,1.022c-1.565,0-2.834-1.27-2.834-2.834
	c0-0.843,0.367-1.599,0.95-2.117c1.819-1.918,2.577-4.217,2.587-6.449c0.007-1.471-0.302-2.924-0.841-4.235
	c-0.528-1.287-1.271-2.418-2.141-3.274c0.02,0.668,0.029,1.338,0.029,2.012c0,9.714-1.942,19.053-5.511,27.742
	c-3.688,8.979-9.108,17.238-15.913,24.479c-2.27,2.413-4.691,4.714-7.254,6.89c-2.528,2.146-5.229,4.193-8.084,6.127
	c-6.464,4.381-11.175,1.578-17.025-1.901c-7.488-4.455-17.354-10.325-37.474,3.146l-0.167,0.109
	c-12.73,7.277-21.21,2.848-29.668-1.573c-4.404-2.302-8.805-4.601-13.611-4.69c-0.448-0.008-1.316,0.977-2.296,2.089
	c-3.053,3.465-6.714,7.62-15.288,4.364l-0.288-0.109l-0.893-0.575l-0.636-0.422c-9.317-6.204-17.277-13.858-23.427-22.571
	c-5.758-8.158-9.93-17.252-12.146-26.96c-1.291-0.747-2.402-1.772-3.251-2.995C0.662,122.281,0,120.318,0,118.215V90.865
	c0-2.761,1.128-5.269,2.943-7.085c1.735-1.734,4.103-2.841,6.718-2.937c2.655-5.933,6.075-11.53,10.153-16.702
	c4.133-5.24,8.962-10.061,14.376-14.364c-4.944-14.585-3.748-23.321,3.265-26.521c6.459-2.947,17.979-0.141,34.264,8.084
	c4.164-1.066,8.479-1.898,12.927-2.476c4.725-0.614,9.507-0.932,14.321-0.932c1.565,0,2.835,1.269,2.835,2.834
	s-1.27,2.835-2.835,2.835c-4.681,0-9.226,0.296-13.612,0.865c-4.485,0.583-8.901,1.463-13.218,2.616l-1.04,0.278l-0.975-0.499
	c-15.194-7.784-25.406-10.709-30.319-8.468c-4.184,1.909-4.139,8.941,0.386,21.398l0.708,1.95l-1.66,1.261
	c-5.658,4.298-10.693,9.217-14.97,14.637c-4.198,5.324-7.641,11.115-10.192,17.259l-0.893,2.145l-2.274-0.462
	c-0.129-0.026-0.273-0.047-0.436-0.064c-0.092-0.009-0.238-0.014-0.442-0.014c-1.195,0-2.284,0.492-3.075,1.283
	c-0.792,0.792-1.283,1.881-1.283,3.077v27.353c0,0.924,0.285,1.779,0.77,2.478c0.504,0.726,1.225,1.294,2.065,1.611l1.455,0.549
	l0.316,1.522c1.965,9.442,5.941,18.299,11.536,26.229c5.744,8.141,13.193,15.298,21.922,21.109l0.97,0.633
	c4.722,1.665,6.921-0.83,8.76-2.917c1.894-2.149,3.567-4.05,6.636-3.993c6.151,0.115,11.142,2.723,16.137,5.333
	c7.082,3.701,14.186,7.413,24.242,1.662c22.984-15.315,34.55-8.437,43.332-3.211c4.154,2.472,7.499,4.461,10.979,2.103
	c2.627-1.779,5.163-3.707,7.597-5.773c2.4-2.037,4.668-4.19,6.788-6.446c6.344-6.748,11.389-14.426,14.807-22.75
	c3.282-7.992,5.068-16.606,5.068-25.595c0-16.492-6.039-31.775-16.317-44.304c-10.595-12.913-25.681-22.918-43.313-28.344
	c-1.283-0.271-2.247-1.409-2.247-2.773c0-1.565,1.27-2.835,2.835-2.835C130.39,32.504,130.757,32.581,131.091,32.719L131.091,32.719
	z M124.264,39.815v-14.87c0-1.565-1.27-2.834-2.835-2.834s-2.834,1.269-2.834,2.834v14.87c0,1.565,1.269,2.834,2.834,2.834
	S124.264,41.381,124.264,39.815L124.264,39.815z M113.464,32.765v-7.82c0-1.565-1.271-2.834-2.835-2.834
	c-1.565,0-2.835,1.269-2.835,2.834v7.82c0,1.566,1.27,2.834,2.835,2.834C112.194,35.599,113.464,34.331,113.464,32.765
	L113.464,32.765z M127.94,55.153c-1.117,0-2.083,0.646-2.545,1.585L101.71,96.462L78.148,57.536
	c-0.479-0.889-1.418-1.493-2.498-1.493c-1.564,0-2.834,1.269-2.834,2.834c0,0.588,0.18,1.134,0.484,1.586l21.04,34.759H69.112
	c-1.564,0-2.835,1.269-2.835,2.834s1.271,2.834,2.835,2.834h28.659l1.119,1.849v11.574H69.276c-1.564,0-2.834,1.27-2.834,2.834
	c0,1.566,1.27,2.835,2.834,2.835H98.89v21.57c0,1.565,1.27,2.834,2.834,2.834c1.565,0,2.835-1.269,2.835-2.834v-21.57h29.613
	c1.565,0,2.835-1.269,2.835-2.835c0-1.564-1.27-2.834-2.835-2.834H104.56v-11.595l1.089-1.827h28.525
	c1.564,0,2.835-1.269,2.835-2.834c0-1.566-1.271-2.834-2.835-2.834h-25.146l21.223-35.591c0.33-0.463,0.523-1.03,0.523-1.643
	C130.775,56.422,129.506,55.153,127.94,55.153z"/>
</svg>
