<?xml version="1.0" encoding="utf-8"?>
<!-- Generator: Adobe Illustrator 16.0.0, SVG Export Plug-In . SVG Version: 6.00 Build 0)  -->
<!DOCTYPE svg PUBLIC "-//W3C//DTD SVG 1.1//EN" "http://www.w3.org/Graphics/SVG/1.1/DTD/svg11.dtd">
<svg version="1.1" id="图层_1" xmlns="http://www.w3.org/2000/svg" xmlns:xlink="http://www.w3.org/1999/xlink" x="0px" y="0px"
	 width="203.365px" height="203.365px" viewBox="0 0 203.365 203.365" enable-background="new 0 0 203.365 203.365"
	 xml:space="preserve">
<path fill="#999999" d="M1.571,83.892C5.879,59.653,18.564,38.696,36.329,23.79C54.125,8.858,77.015,0,101.683,0
	c28.078,0,53.5,11.381,71.9,29.782c18.4,18.401,29.782,43.822,29.782,71.9v4.62l-31.699-16.126
	c-0.981-0.446-1.664-1.435-1.664-2.583c0-1.565,1.271-2.834,2.835-2.834c0.505,0,0.979,0.133,1.391,0.364l23.355,11.881
	c-1.184-24.652-11.661-46.868-28.008-63.214C152.2,16.416,128.196,5.669,101.683,5.669c-23.302,0-44.92,8.363-61.722,22.462
	C23.183,42.208,11.205,62.008,7.144,84.913c-0.193,1.378-1.376,2.44-2.807,2.44c-1.566,0-2.835-1.27-2.835-2.835
	C1.501,84.303,1.526,84.093,1.571,83.892L1.571,83.892z M195.577,129.771c-1.314,0-2.424,0.897-2.741,2.113
	c-6.437,19.479-18.838,35.994-34.897,47.612c-15.904,11.507-35.404,18.2-56.255,18.2c-26.514,0-50.518-10.746-67.892-28.12
	c-16.352-16.353-26.832-38.577-28.009-63.239l23.867,12.038c0.425,0.255,0.923,0.401,1.456,0.401c1.565,0,2.834-1.269,2.834-2.834
	c0-1.18-0.722-2.192-1.749-2.618L0,97.086v4.597c0,28.08,11.381,53.5,29.783,71.9c18.401,18.4,43.822,29.782,71.9,29.782
	c22.072,0,42.725-7.095,59.578-19.286c16.99-12.292,30.117-29.775,36.941-50.403c0.136-0.331,0.21-0.692,0.21-1.071
	C198.412,131.04,197.144,129.771,195.577,129.771L195.577,129.771z M200.747,124.588c-0.217,1.351-1.387,2.382-2.799,2.382
	c-1.565,0-2.834-1.269-2.834-2.834c0-0.287,0.043-0.564,0.121-0.824c0.199-0.858,0.373-1.652,0.521-2.377
	c0.133-0.651,0.288-1.478,0.463-2.467c0.186-1.386,1.373-2.455,2.811-2.455c1.564,0,2.834,1.27,2.834,2.836
	c0,0.209-0.022,0.414-0.065,0.61c-0.128,0.715-0.296,1.583-0.505,2.604C201.106,122.979,200.924,123.821,200.747,124.588
	L200.747,124.588z M104.494,145.222v-23.621h32.343c1.564,0,2.834-1.27,2.834-2.834c0-1.565-1.27-2.834-2.834-2.834h-32.343V103.08
	l1.317-2.177h31.203c1.565,0,2.834-1.269,2.834-2.834s-1.269-2.834-2.834-2.834h-27.771l23.033-38.052
	c0.307-0.453,0.484-0.999,0.484-1.586c0-1.566-1.27-2.835-2.835-2.835c-1.079,0-2.019,0.604-2.497,1.493l-25.755,42.548
	l-25.89-43.421c-0.462-0.939-1.428-1.585-2.545-1.585c-1.565,0-2.835,1.269-2.835,2.834c0,0.612,0.194,1.179,0.524,1.643
	L94.16,95.233H66.481c-1.565,0-2.834,1.269-2.834,2.834s1.269,2.834,2.834,2.834H97.54l1.285,2.155v12.873H66.483
	c-1.566,0-2.835,1.27-2.835,2.834c0,1.566,1.269,2.834,2.835,2.834h32.342v23.623c0,1.565,1.269,2.834,2.835,2.834
	C103.226,148.058,104.494,146.788,104.494,145.222z"/>
</svg>
