<?xml version="1.0" encoding="utf-8"?>
<!-- Generator: Adobe Illustrator 16.0.0, SVG Export Plug-In . SVG Version: 6.00 Build 0)  -->
<!DOCTYPE svg PUBLIC "-//W3C//DTD SVG 1.1//EN" "http://www.w3.org/Graphics/SVG/1.1/DTD/svg11.dtd">
<svg version="1.1" id="图层_1" xmlns="http://www.w3.org/2000/svg" xmlns:xlink="http://www.w3.org/1999/xlink" x="0px" y="0px"
	 width="197.968px" height="203.227px" viewBox="0 0 197.968 203.227" enable-background="new 0 0 197.968 203.227"
	 xml:space="preserve">
<path fill="#808080" d="M104.904,2.209c11.93,10.27,24.658,19.451,38.102,27.658c13.461,8.217,27.681,15.483,42.567,21.909
	c6.291,2.715,9.987,7.714,11.55,14.337c2.23,9.451-0.082,22.278-5.418,36.305c-5.215,13.706-13.359,28.697-22.959,42.816
	c-21.145,31.102-49.568,57.995-69.718,57.992c-19.983-0.003-48.52-26.77-69.756-57.761c-9.61-14.024-17.779-28.938-23.013-42.613
	C0.911,88.875-1.399,76.068,0.867,66.579c1.592-6.671,5.359-11.729,11.777-14.514c14.789-6.416,28.926-13.749,42.374-22.049
	c13.424-8.284,26.164-17.538,38.181-27.809C94.92,0.738,96.984,0,99.052,0s4.128,0.735,5.84,2.209H104.904L104.904,2.209z
	 M70.659,98.647c-1.566,0-2.835,1.269-2.835,2.834c0,0.854,0.379,1.623,0.979,2.142l30.193,30.514l58.707-58.553
	c0.606-0.52,0.991-1.292,0.991-2.152c0-1.565-1.271-2.834-2.835-2.834c-0.859,0-1.63,0.382-2.148,0.985l-54.688,54.544
	L72.819,99.647C72.299,99.036,71.524,98.647,70.659,98.647L70.659,98.647z M140.06,34.695c-13.747-8.392-26.729-17.752-38.854-28.19
	L101.21,6.5c-0.646-0.554-1.405-0.831-2.157-0.831c-0.759,0-1.526,0.279-2.178,0.836C84.652,16.95,71.676,26.374,57.985,34.823
	C44.318,43.257,29.938,50.716,14.88,57.247c-4.601,1.996-7.322,5.708-8.499,10.64c-1.985,8.315,0.209,19.982,5.171,32.95
	c5.078,13.27,13.027,27.773,22.392,41.439c20.333,29.673,47.08,55.3,65.083,55.303c18.162,0.003,44.805-25.74,65.045-55.512
	c9.336-13.733,17.264-28.321,22.34-41.665c4.953-13.022,7.151-24.718,5.195-33.004c-1.145-4.85-3.793-8.485-8.271-10.417
	C168.244,50.467,153.791,43.076,140.06,34.695z"/>
</svg>
