<?xml version="1.0" encoding="utf-8"?>
<!-- Generator: Adobe Illustrator 16.0.0, SVG Export Plug-In . SVG Version: 6.00 Build 0)  -->
<!DOCTYPE svg PUBLIC "-//W3C//DTD SVG 1.1//EN" "http://www.w3.org/Graphics/SVG/1.1/DTD/svg11.dtd">
<svg version="1.1" id="图层_1" xmlns="http://www.w3.org/2000/svg" xmlns:xlink="http://www.w3.org/1999/xlink" x="0px" y="0px"
	 width="203.346px" height="204.743px" viewBox="0 0 203.346 204.743" enable-background="new 0 0 203.346 204.743"
	 xml:space="preserve">
<path fill="#333333" d="M70.698,187.465l0.009-48.854h-0.011h0.011c0.001-8.519,3.485-16.26,9.098-21.868
	c5.604-5.604,13.344-9.082,21.86-9.08v-0.012v0.012c8.52,0.002,16.26,3.485,21.87,9.098c5.604,5.604,9.08,13.345,9.079,21.861
	l-0.009,48.854c0.007,0.082,0.011,0.164,0.011,0.248c0,1.565-1.269,2.835-2.835,2.835c-1.565,0-2.834-1.27-2.834-2.835
	c0-0.084,0.004-0.167,0.011-0.25l0.009-48.853c0.001-6.955-2.849-13.283-7.439-17.877c-4.585-4.586-10.908-7.436-17.861-7.437v0.011
	v-0.011c-6.954-0.001-13.282,2.849-17.875,7.44c-4.587,4.584-7.435,10.907-7.436,17.86h0.011h-0.011l-0.009,48.854
	c0.007,0.082,0.011,0.164,0.011,0.248c0,1.565-1.27,2.834-2.834,2.834c-1.566,0-2.835-1.269-2.835-2.834
	C70.687,187.631,70.691,187.547,70.698,187.465L70.698,187.465z M16.623,85.66c-1.564,0-2.834,1.269-2.834,2.834v85.067
	c0,8.578,3.507,16.374,9.157,22.023s13.446,9.158,22.023,9.158h113.756c8.578,0,16.374-3.509,22.023-9.158
	s9.157-13.445,9.157-22.023V88.494c0-1.565-1.27-2.834-2.835-2.834s-2.835,1.269-2.835,2.834v85.067
	c0,7.014-2.871,13.391-7.496,18.016s-11.003,7.498-18.016,7.498H44.969c-7.014,0-13.391-2.873-18.016-7.498
	s-7.497-11.002-7.497-18.016V88.494C19.458,86.929,18.188,85.66,16.623,85.66L16.623,85.66z M4.65,76.138
	c-0.492,0.41-1.125,0.657-1.815,0.657C1.269,76.795,0,75.525,0,73.96c0-1.029,0.549-1.93,1.37-2.427L101.687,0l100.29,71.625
	c0.818,0.497,1.368,1.397,1.368,2.426c0,1.566-1.271,2.835-2.836,2.835c-0.69,0-1.324-0.247-1.815-0.658l-97.01-69.283L4.65,76.138
	L4.65,76.138z M144.201,20.488h36.642c0.776,0,1.484,0.319,1.999,0.834c0.516,0.516,0.836,1.224,0.836,2v22.685
	c0,1.565,1.27,2.834,2.835,2.834c1.564,0,2.834-1.269,2.834-2.834V23.322c0-2.341-0.956-4.468-2.495-6.008
	c-1.54-1.54-3.667-2.496-6.008-2.496h-36.643c-1.564,0-2.835,1.27-2.835,2.835S142.636,20.488,144.201,20.488z"/>
</svg>
