<?xml version="1.0" encoding="utf-8"?>
<!-- Generator: Adobe Illustrator 16.0.0, SVG Export Plug-In . SVG Version: 6.00 Build 0)  -->
<!DOCTYPE svg PUBLIC "-//W3C//DTD SVG 1.1//EN" "http://www.w3.org/Graphics/SVG/1.1/DTD/svg11.dtd">
<svg version="1.1" id="图层_1" xmlns="http://www.w3.org/2000/svg" xmlns:xlink="http://www.w3.org/1999/xlink" x="0px" y="0px"
	 width="203.254px" height="203.254px" viewBox="0 0 203.254 203.254" enable-background="new 0 0 203.254 203.254"
	 xml:space="preserve">
<path fill="#999999" d="M101.627,0c28.063,0,53.471,11.375,71.861,29.767c18.391,18.391,29.766,43.797,29.766,71.861
	c0,28.063-11.375,53.47-29.766,71.86c-18.391,18.392-43.799,29.767-71.861,29.767c-28.063,0-53.47-11.375-71.861-29.767
	C11.375,155.098,0,129.689,0,101.627c0-28.063,11.375-53.47,29.766-71.861C48.157,11.375,73.564,0,101.627,0L101.627,0z
	 M89.701,155.294l0.034,0.022l26.992-15.584c0.945-0.459,1.596-1.428,1.596-2.549c0-1.565-1.268-2.834-2.834-2.834
	c-0.588,0-1.133,0.178-1.586,0.483l-21.236,12.263l19.387-63.448l0.002-0.006l0.036-0.117l-0.003-0.001
	c0.061-0.23,0.094-0.471,0.094-0.72c0-1.565-1.27-2.834-2.836-2.834c-0.603,0-1.16,0.188-1.621,0.509l-27.994,16.16
	c-0.945,0.46-1.596,1.429-1.596,2.55c0,1.566,1.269,2.834,2.834,2.834c0.588,0,1.133-0.178,1.586-0.484l22.007-12.707L85.191,152.23
	l0.003,0.002c-0.091,0.277-0.141,0.574-0.141,0.881c0,1.566,1.27,2.835,2.835,2.835C88.578,155.949,89.21,155.703,89.701,155.294
	L89.701,155.294z M117.434,58.173l2.197-1.269c0.945-0.46,1.596-1.429,1.596-2.55c0-1.566-1.269-2.835-2.834-2.835
	c-0.588,0-1.133,0.179-1.586,0.485l-2.197,1.269c-0.944,0.46-1.596,1.429-1.596,2.55c0,1.566,1.27,2.835,2.834,2.835
	C116.436,58.658,116.98,58.479,117.434,58.173L117.434,58.173z M169.479,33.775C152.115,16.41,128.125,5.669,101.627,5.669
	S51.139,16.41,33.774,33.775C16.41,51.139,5.669,75.129,5.669,101.627s10.74,50.488,28.105,67.854
	c17.364,17.365,41.354,28.104,67.853,28.104s50.488-10.739,67.854-28.104c17.365-17.364,28.104-41.354,28.104-67.854
	C197.585,75.129,186.846,51.139,169.479,33.775z"/>
</svg>
