<?xml version="1.0" encoding="utf-8"?>
<!-- Generator: Adobe Illustrator 16.0.0, SVG Export Plug-In . SVG Version: 6.00 Build 0)  -->
<!DOCTYPE svg PUBLIC "-//W3C//DTD SVG 1.1//EN" "http://www.w3.org/Graphics/SVG/1.1/DTD/svg11.dtd">
<svg version="1.1" id="图层_1" xmlns="http://www.w3.org/2000/svg" xmlns:xlink="http://www.w3.org/1999/xlink" x="0px" y="0px"
	 width="204.475px" height="204.508px" viewBox="0 0 204.475 204.508" enable-background="new 0 0 204.475 204.508"
	 xml:space="preserve">
<path fill="#808080" d="M1.992,113.826L115.787,0l88.638,0.05l0.05,88.616l-10.147,10.145c0.179-0.035,0.362-0.054,0.553-0.054
	c1.564,0,2.834,1.27,2.834,2.835c0,0.742-0.285,1.417-0.752,1.922l-35.919,100.44l-51.919-14.776
	c-1.256-0.291-2.191-1.416-2.191-2.762c0-0.078,0.003-0.156,0.01-0.232L88.61,204.508L0,115.818L1.992,113.826L1.992,113.826z
	 M110.678,183.73l46.813,13.324l34.188-95.598c-27.383,27.377-54.763,54.757-82.146,82.134c0.076-0.007,0.154-0.01,0.232-0.01
	C110.086,183.582,110.393,183.635,110.678,183.73L110.678,183.73z M159.462,36.508c-4.696,0-8.504,3.807-8.504,8.504
	c0,4.697,3.808,8.504,8.504,8.504c4.697,0,8.505-3.807,8.505-8.504C167.967,40.315,164.159,36.508,159.462,36.508L159.462,36.508z
	 M118.134,5.648L7.992,115.82l80.608,80.681L198.826,86.298l-0.046-80.604L118.134,5.648z"/>
</svg>
