<?xml version="1.0" encoding="utf-8"?>
<!-- Generator: Adobe Illustrator 16.0.0, SVG Export Plug-In . SVG Version: 6.00 Build 0)  -->
<!DOCTYPE svg PUBLIC "-//W3C//DTD SVG 1.1//EN" "http://www.w3.org/Graphics/SVG/1.1/DTD/svg11.dtd">
<svg version="1.1" id="图层_1" xmlns="http://www.w3.org/2000/svg" xmlns:xlink="http://www.w3.org/1999/xlink" x="0px" y="0px"
	 width="192.871px" height="203.408px" viewBox="0 0 192.871 203.408" enable-background="new 0 0 192.871 203.408"
	 xml:space="preserve">
<path fill="#999999" d="M91.229,0c15.878,0,30.257,6.438,40.664,16.845c10.406,10.406,16.844,24.783,16.844,40.663
	c0,15.879-6.438,30.257-16.844,40.663c-5.844,5.844-12.938,10.436-20.85,13.339c3.137,0.696,6.213,1.554,9.223,2.563
	c9.412,3.158,18.131,7.802,25.875,13.648c0.758,0.508,1.258,1.373,1.258,2.354c0,1.565-1.27,2.835-2.834,2.835
	c-0.696,0-1.334-0.251-1.828-0.667c-7.281-5.498-15.459-9.856-24.266-12.812c-8.492-2.851-17.6-4.402-27.084-4.418h-0.157h-0.11
	c-23.583,0.03-44.931,9.6-60.39,25.06c-15.483,15.483-25.06,36.872-25.06,60.5c0,1.565-1.269,2.835-2.834,2.835
	c-1.566,0-2.835-1.27-2.835-2.835c0-25.191,10.211-47.999,26.721-64.509c12.047-12.047,27.449-20.739,44.684-24.559
	c-7.906-2.902-14.999-7.494-20.839-13.335C40.159,87.765,33.722,73.387,33.722,57.508c0-15.88,6.437-30.257,16.844-40.663
	C60.973,6.438,75.35,0,91.229,0L91.229,0z M165.009,200.522v-25.516h25.027c1.565,0,2.835-1.27,2.835-2.834s-1.27-2.835-2.835-2.835
	h-25.027v-25.065c0-1.564-1.271-2.834-2.835-2.834s-2.835,1.27-2.835,2.834v25.065h-25.665c-1.564,0-2.835,1.271-2.835,2.835
	s1.271,2.834,2.835,2.834h25.665v25.516c0,1.566,1.271,2.834,2.835,2.834S165.009,202.089,165.009,200.522L165.009,200.522z
	 M91.117,109.345h0.112h0.162c14.251-0.044,27.148-5.837,36.493-15.182c9.382-9.38,15.183-22.34,15.183-36.655
	c0-14.314-5.801-27.275-15.183-36.655c-9.38-9.381-22.34-15.183-36.655-15.183s-27.275,5.802-36.656,15.183
	c-9.38,9.38-15.183,22.341-15.183,36.655c0,14.315,5.802,27.275,15.183,36.655C63.93,103.519,76.847,109.313,91.117,109.345z"/>
</svg>
