<?xml version="1.0" encoding="utf-8"?>
<!-- Generator: Adobe Illustrator 16.0.0, SVG Export Plug-In . SVG Version: 6.00 Build 0)  -->
<!DOCTYPE svg PUBLIC "-//W3C//DTD SVG 1.1//EN" "http://www.w3.org/Graphics/SVG/1.1/DTD/svg11.dtd">
<svg version="1.1" id="图层_1" xmlns="http://www.w3.org/2000/svg" xmlns:xlink="http://www.w3.org/1999/xlink" x="0px" y="0px"
	 width="203.238px" height="203.238px" viewBox="0 0 203.238 203.238" enable-background="new 0 0 203.238 203.238"
	 xml:space="preserve">
<path fill="#999999" d="M101.643,0c28.062,0.005,53.467,11.384,71.854,29.778c18.38,18.387,29.747,43.792,29.742,71.853
	c-0.005,28.063-11.385,53.468-29.778,71.854c-18.388,18.38-43.792,29.747-71.854,29.742v0.011v-0.011
	c-28.063-0.005-53.467-11.385-71.854-29.778c-18.381-18.387-29.747-43.792-29.741-71.853H0h0.012
	c0.005-28.063,11.385-53.468,29.777-71.854C48.177,11.361,73.581-0.005,101.643,0L101.643,0z M104.459,161.764v-7.583
	c0-1.565-1.27-2.834-2.835-2.834c-1.564,0-2.834,1.269-2.834,2.834v7.583c0,1.564,1.27,2.834,2.834,2.834
	C103.189,164.598,104.459,163.329,104.459,161.764L104.459,161.764z M104.459,140.463v-36.136
	c8.021-0.679,15.226-4.214,20.596-9.585c5.995-5.996,9.704-14.281,9.704-23.429c0-9.15-3.709-17.435-9.704-23.431
	c-5.996-5.995-14.279-9.704-23.431-9.704c-9.147,0-17.433,3.709-23.429,9.704c-5.997,5.996-9.706,14.28-9.706,23.431
	c0,1.564,1.27,2.834,2.835,2.834s2.835-1.27,2.835-2.834c0-7.585,3.074-14.452,8.044-19.421c4.97-4.971,11.837-8.044,19.421-8.044
	c7.585,0,14.452,3.073,19.422,8.044c4.971,4.97,8.044,11.836,8.044,19.421c0,7.584-3.073,14.451-8.044,19.421
	c-4.97,4.97-11.837,8.044-19.422,8.044H98.79v41.685c0,1.565,1.27,2.834,2.834,2.834
	C103.189,143.297,104.459,142.029,104.459,140.463L104.459,140.463z M169.487,33.764c-17.361-17.367-41.349-28.112-67.845-28.117
	C75.145,5.643,51.149,16.383,33.775,33.75C16.408,51.111,5.663,75.099,5.658,101.596h0.011H5.658
	c-0.005,26.498,10.735,50.492,28.104,67.865c17.36,17.368,41.349,28.112,67.846,28.117v-0.011v0.011
	c26.498,0.005,50.494-10.734,67.867-28.103c17.366-17.361,28.111-41.35,28.116-67.847C197.596,75.133,186.855,51.138,169.487,33.764
	z"/>
</svg>
