<?xml version="1.0" encoding="utf-8"?>
<!-- Generator: Adobe Illustrator 16.0.0, SVG Export Plug-In . SVG Version: 6.00 Build 0)  -->
<!DOCTYPE svg PUBLIC "-//W3C//DTD SVG 1.1//EN" "http://www.w3.org/Graphics/SVG/1.1/DTD/svg11.dtd">
<svg version="1.1" id="图层_1" xmlns="http://www.w3.org/2000/svg" xmlns:xlink="http://www.w3.org/1999/xlink" x="0px" y="0px"
	 width="203.227px" height="203.328px" viewBox="0 0 203.227 203.328" enable-background="new 0 0 203.227 203.328"
	 xml:space="preserve">
<path fill="#808080" d="M59.364,41.979l70.366,0.013c0.082-0.007,0.165-0.011,0.249-0.011c1.565,0,2.834,1.269,2.834,2.835
	c0,1.565-1.269,2.834-2.834,2.834c-0.084,0-0.168-0.004-0.25-0.011l-70.366-0.013c-0.082,0.007-0.165,0.011-0.249,0.011
	c-1.565,0-2.835-1.269-2.835-2.834c0-1.566,1.27-2.835,2.835-2.835C59.198,41.969,59.282,41.973,59.364,41.979L59.364,41.979z
	 M101.628,70.322c1.564,0,2.834,1.269,2.834,2.834c0,1.565-1.27,2.835-2.834,2.835c-0.085,0-0.168-0.004-0.25-0.011l-42.021-0.008
	c-0.082,0.007-0.165,0.011-0.249,0.011c-1.564,0-2.834-1.269-2.834-2.835c0-1.565,1.27-2.834,2.834-2.834
	c0.084,0,0.167,0.004,0.25,0.011l42.021,0.008C101.461,70.326,101.544,70.322,101.628,70.322L101.628,70.322z M3.61,84.588L0,83.551
	v88.595c0,8.578,3.507,16.374,9.157,22.023c5.649,5.649,13.445,9.158,22.023,9.158h140.865c8.577,0,16.373-3.509,22.022-9.158
	c5.65-5.649,9.157-13.445,9.157-22.023V83.551l-27.337,7.851v5.893l21.668-6.222v81.073c0,7.014-2.871,13.391-7.496,18.016
	s-11.003,7.496-18.016,7.496H31.181c-7.013,0-13.391-2.871-18.016-7.496s-7.496-11.002-7.496-18.016V91.071l95.175,27.327
	l0.775,0.223l67.467-19.373v-5.894l-67.467,19.374L33.608,93.201v-62.02c0-7.013,2.871-13.391,7.496-18.016
	S52.107,5.669,59.12,5.669h85.023c7.014,0,13.391,2.871,18.016,7.496s7.495,11.003,7.495,18.016v62.011l-0.001,0.001v5.893
	l5.671-1.628v-6.813h0.001V31.181c0-8.578-3.509-16.374-9.157-22.023C160.517,3.507,152.721,0,144.144,0H59.119
	c-8.578,0-16.374,3.507-22.023,9.157c-5.65,5.649-9.157,13.445-9.157,22.023v60.393L3.61,84.588z"/>
</svg>
