<?xml version="1.0" encoding="utf-8"?>
<!-- Generator: Adobe Illustrator 16.0.0, SVG Export Plug-In . SVG Version: 6.00 Build 0)  -->
<!DOCTYPE svg PUBLIC "-//W3C//DTD SVG 1.1//EN" "http://www.w3.org/Graphics/SVG/1.1/DTD/svg11.dtd">
<svg version="1.1" id="图层_1" xmlns="http://www.w3.org/2000/svg" xmlns:xlink="http://www.w3.org/1999/xlink" x="0px" y="0px"
	 width="203.303px" height="203.303px" viewBox="0 0 203.303 203.303" enable-background="new 0 0 203.303 203.303"
	 xml:space="preserve">
<path fill="#55CC77" d="M31.181,0h42.032c5.664,0,10.77,3.708,15.874,7.415c4.357,3.164,8.716,6.328,12.553,6.328
	c3.853,0,8.245-3.164,12.638-6.328C119.422,3.708,124.567,0,130.214,0h41.906c8.578,0,16.374,3.508,22.024,9.157
	c5.648,5.65,9.156,13.446,9.156,22.024v133.171c0,8.578-3.508,16.374-9.156,22.022c-5.65,5.65-13.446,9.158-22.024,9.158h-41.455
	c-4.306,0-8.844,1.837-13.381,3.674c-5.057,2.047-10.114,4.094-15.508,4.094c-5.281,0-10.345-2.047-15.407-4.094
	c-4.543-1.837-9.086-3.674-13.305-3.674H31.181c-8.577,0-16.374-3.508-22.023-9.158C3.507,180.727,0,172.931,0,164.353V31.182
	c0-8.578,3.507-16.374,9.157-22.024S22.604,0,31.181,0L31.181,0z M104.552,187.11V29.911c0-1.565-1.271-2.835-2.836-2.835
	c-1.564,0-2.835,1.27-2.835,2.835V187.11c0,1.565,1.271,2.835,2.835,2.835C103.282,189.945,104.552,188.677,104.552,187.11
	L104.552,187.11z M172.818,155.176h-42.602c-1.564,0-2.834,1.271-2.834,2.836c0,1.564,1.27,2.835,2.834,2.835h42.602
	c1.564,0,2.835-1.271,2.835-2.835C175.653,156.446,174.384,155.176,172.818,155.176L172.818,155.176z M73.519,155.176H30.918
	c-1.564,0-2.834,1.271-2.834,2.836c0,1.564,1.27,2.835,2.834,2.835h42.602c1.564,0,2.835-1.271,2.835-2.835
	C76.354,156.446,75.084,155.176,73.519,155.176L73.519,155.176z M31.218,105.045h42.002c1.564,0,2.834-1.269,2.834-2.835
	c0-1.563-1.27-2.834-2.834-2.834H31.218c-1.564,0-2.834,1.271-2.834,2.834C28.384,103.776,29.652,105.045,31.218,105.045
	L31.218,105.045z M130.519,105.045h42c1.564,0,2.835-1.269,2.835-2.835c0-1.563-1.271-2.834-2.835-2.834h-42
	c-1.565,0-2.835,1.271-2.835,2.834C127.684,103.776,128.953,105.045,130.519,105.045L130.519,105.045z M172.219,41.775h-42.302
	c-1.564,0-2.834,1.269-2.834,2.835c0,1.564,1.27,2.834,2.834,2.834h42.302c1.564,0,2.834-1.27,2.834-2.834
	C175.053,43.044,173.784,41.775,172.219,41.775L172.219,41.775z M73.818,41.775h-42.3c-1.565,0-2.835,1.269-2.835,2.835
	c0,1.564,1.27,2.834,2.835,2.834h42.3c1.564,0,2.835-1.27,2.835-2.834C76.653,43.044,75.384,41.775,73.818,41.775L73.818,41.775z
	 M73.214,5.669H31.181c-7.014,0-13.392,2.872-18.017,7.497S5.669,24.169,5.669,31.182v133.171c0,7.014,2.871,13.391,7.496,18.016
	s11.003,7.496,18.017,7.496h41.884c5.281,0,10.346,2.048,15.408,4.095c4.543,1.837,9.086,3.674,13.304,3.674
	c4.307,0,8.845-1.837,13.382-3.674c5.057-2.047,10.114-4.095,15.507-4.095h41.455c7.015,0,13.392-2.871,18.017-7.496
	s7.495-11.002,7.495-18.016V31.182c0-7.014-2.87-13.392-7.495-18.017s-11.002-7.497-18.017-7.497h-41.906
	c-3.854,0-8.244,3.166-12.638,6.33c-5.145,3.707-10.29,7.414-15.937,7.414c-5.664,0-10.771-3.707-15.874-7.414
	C81.408,8.835,77.05,5.669,73.214,5.669z"/>
</svg>
