<?xml version="1.0" encoding="utf-8"?>
<!-- Generator: Adobe Illustrator 16.0.0, SVG Export Plug-In . SVG Version: 6.00 Build 0)  -->
<!DOCTYPE svg PUBLIC "-//W3C//DTD SVG 1.1//EN" "http://www.w3.org/Graphics/SVG/1.1/DTD/svg11.dtd">
<svg version="1.1" id="图层_1" xmlns="http://www.w3.org/2000/svg" xmlns:xlink="http://www.w3.org/1999/xlink" x="0px" y="0px"
	 width="147.871px" height="203.369px" viewBox="0 0 147.871 203.369" enable-background="new 0 0 147.871 203.369"
	 xml:space="preserve">
<path fill="#FF7755" d="M88.039,203.369H31.181c-8.578,0-16.374-3.507-22.024-9.157C3.507,188.563,0,180.767,0,172.188V31.181
	c0-8.577,3.507-16.374,9.157-22.023C14.807,3.507,22.603,0,31.181,0h85.507c8.578,0,16.374,3.507,22.022,9.157
	c5.65,5.649,9.158,13.446,9.158,22.023v98.684c0,1.566-1.27,2.835-2.834,2.835c-1.565,0-2.836-1.269-2.836-2.835V31.181
	c0-7.013-2.871-13.391-7.496-18.016s-11.002-7.496-18.016-7.496H31.181c-7.013,0-13.391,2.871-18.016,7.496
	S5.669,24.168,5.669,31.181v141.007c0,7.014,2.872,13.392,7.497,18.017s11.002,7.496,18.016,7.496h56.856
	c1.566,0,2.836,1.269,2.836,2.835C90.873,202.101,89.604,203.369,88.039,203.369L88.039,203.369z M126.563,200.53v-21.631h18.332
	c1.565,0,2.835-1.271,2.835-2.836c0-1.564-1.27-2.834-2.835-2.834h-18.099l20.347-27.07c0.451-0.502,0.728-1.166,0.728-1.895
	c0-1.565-1.271-2.834-2.836-2.834c-1.017,0-1.908,0.533-2.408,1.338l-18.918,25.17l-19.353-25.242
	c-0.508-0.764-1.376-1.268-2.36-1.268c-1.565,0-2.836,1.271-2.836,2.836c0,0.717,0.268,1.371,0.705,1.869l20.772,27.096h-18.642
	c-1.565,0-2.836,1.27-2.836,2.834c0,1.565,1.271,2.836,2.836,2.836h18.897v21.632c0,1.565,1.269,2.834,2.834,2.834
	C125.294,203.365,126.563,202.097,126.563,200.53L126.563,200.53z M45.435,147.062H87.83c1.565,0,2.834-1.27,2.834-2.834
	c0-1.565-1.269-2.836-2.834-2.836H45.435c-1.565,0-2.834,1.271-2.834,2.836C42.601,145.792,43.869,147.062,45.435,147.062
	L45.435,147.062z M102.434,84.58h-57c-1.565,0-2.834,1.269-2.834,2.834s1.269,2.835,2.834,2.835h57c1.565,0,2.835-1.27,2.835-2.835
	S104,84.58,102.434,84.58L102.434,84.58z M45.435,33.625h57c1.566,0,2.835-1.27,2.835-2.835s-1.269-2.835-2.835-2.835h-57
	c-1.565,0-2.834,1.27-2.834,2.835S43.869,33.625,45.435,33.625z"/>
</svg>
