<?xml version="1.0" encoding="utf-8"?>
<!-- Generator: Adobe Illustrator 16.0.0, SVG Export Plug-In . SVG Version: 6.00 Build 0)  -->
<!DOCTYPE svg PUBLIC "-//W3C//DTD SVG 1.1//EN" "http://www.w3.org/Graphics/SVG/1.1/DTD/svg11.dtd">
<svg version="1.1" id="图层_1" xmlns="http://www.w3.org/2000/svg" xmlns:xlink="http://www.w3.org/1999/xlink" x="0px" y="0px"
	 width="197.6px" height="197.604px" viewBox="0 0 197.6 197.604" enable-background="new 0 0 197.6 197.604" xml:space="preserve">
<path fill="#55CC77" d="M28.347,0h140.906C184.844,0,197.6,12.756,197.6,28.347v98.834c0,15.59-12.756,28.346-28.347,28.346H27.813
	L0,197.604V28.347C0,12.756,12.756,0,28.347,0L28.347,0z M130.858,126.653c0.905,0.611,1.996,0.97,3.171,0.97
	c3.132,0,5.671-2.538,5.671-5.669c0-2.243-1.304-4.183-3.192-5.102l-30.194-17.436l-2.046,0.38c-0.923,0.171-1.835,0.3-2.729,0.381
	c-0.762,0.069-1.684,0.104-2.771,0.104c-8.238,0-15.696-3.339-21.095-8.736c-5.399-5.398-8.738-12.857-8.738-21.096
	c0-8.239,3.34-15.697,8.738-21.097c5.397-5.396,12.855-8.736,21.095-8.736c8.237,0,15.692,3.339,21.09,8.734
	c5.412,5.413,8.763,12.874,8.767,21.099c0.002,3.888-0.736,7.592-2.084,10.983c-1.35,3.398-3.325,6.504-5.794,9.187
	c-1.105,1.033-1.796,2.506-1.796,4.139c0,3.131,2.537,5.67,5.669,5.67c1.776,0,3.363-0.818,4.402-2.099
	c3.396-3.676,6.129-7.979,8.017-12.731c1.86-4.689,2.883-9.8,2.88-15.147c-0.005-11.386-4.606-21.679-12.043-29.114
	c-7.449-7.449-17.738-12.058-29.106-12.058s-21.661,4.608-29.112,12.06c-7.449,7.451-12.059,17.744-12.059,29.112
	s4.608,21.661,12.059,29.111c7.451,7.451,17.744,12.061,29.112,12.061c1.124,0,2.392-0.066,3.789-0.194
	c0.55-0.05,1.092-0.11,1.625-0.18L130.858,126.653z"/>
</svg>
