<?xml version="1.0" encoding="utf-8"?>
<!-- Generator: Adobe Illustrator 16.0.0, SVG Export Plug-In . SVG Version: 6.00 Build 0)  -->
<!DOCTYPE svg PUBLIC "-//W3C//DTD SVG 1.1//EN" "http://www.w3.org/Graphics/SVG/1.1/DTD/svg11.dtd">
<svg version="1.1" id="图层_1" xmlns="http://www.w3.org/2000/svg" xmlns:xlink="http://www.w3.org/1999/xlink" x="0px" y="0px"
	 width="175.41px" height="210.541px" viewBox="0 0 175.41 210.541" enable-background="new 0 0 175.41 210.541"
	 xml:space="preserve">
<path fill="#FFFFFF" d="M0.42,87.495c0-24.158,9.795-46.031,25.63-61.866C41.884,9.795,63.758,0,87.915,0
	c24.161,0,46.034,9.793,61.868,25.627c15.833,15.833,25.627,37.707,25.627,61.868c0,19.456-6.362,37.438-17.12,51.979
	c-10.995,14.861-26.597,26.119-44.698,31.67c-21.684,7.605-39.834,8.059-55.467,8.447c-22.058,0.549-38.841,0.969-52.887,22.807
	L0,210.541L0.431,87.495H0.42L0.42,87.495z M130.779,79.37c-4.696,0-8.504,3.807-8.504,8.504c0,4.696,3.808,8.504,8.504,8.504
	c4.697,0,8.505-3.808,8.505-8.504C139.284,83.177,135.477,79.37,130.779,79.37L130.779,79.37z M88.042,79.37
	c-4.697,0-8.504,3.807-8.504,8.504c0,4.696,3.807,8.504,8.504,8.504c4.696,0,8.504-3.808,8.504-8.504
	C96.546,83.177,92.738,79.37,88.042,79.37L88.042,79.37z M45.304,79.37c-4.696,0-8.504,3.807-8.504,8.504
	c0,4.696,3.808,8.504,8.504,8.504c4.697,0,8.504-3.808,8.504-8.504C53.808,83.177,50.001,79.37,45.304,79.37L45.304,79.37z
	 M30.058,29.638C15.25,44.445,6.089,64.902,6.089,87.495H6.078L5.712,192.172c14.456-17.284,31.115-17.7,52.28-18.228
	c15.213-0.379,32.876-0.82,53.738-8.137l0.11-0.033c16.966-5.178,31.595-15.727,41.908-29.668
	c10.049-13.582,15.991-30.397,15.991-48.612c0-22.596-9.159-43.053-23.967-57.86C130.968,14.828,110.512,5.669,87.915,5.669
	C65.322,5.669,44.865,14.83,30.058,29.638z"/>
</svg>
