<?xml version="1.0" encoding="utf-8"?>
<!-- Generator: Adobe Illustrator 16.0.0, SVG Export Plug-In . SVG Version: 6.00 Build 0)  -->
<!DOCTYPE svg PUBLIC "-//W3C//DTD SVG 1.1//EN" "http://www.w3.org/Graphics/SVG/1.1/DTD/svg11.dtd">
<svg version="1.1" id="图层_1" xmlns="http://www.w3.org/2000/svg" xmlns:xlink="http://www.w3.org/1999/xlink" x="0px" y="0px"
	 width="197.632px" height="197.632px" viewBox="0 0 197.632 197.632" enable-background="new 0 0 197.632 197.632"
	 xml:space="preserve">
<path fill="#FFFFFF" d="M98.821,84.643c7.828,0,14.173,6.346,14.173,14.174c0,7.827-6.345,14.173-14.173,14.173
	c-7.828,0-14.173-6.346-14.173-14.173C84.648,90.988,90.994,84.643,98.821,84.643L98.821,84.643z M183.457,84.643
	c7.828,0,14.174,6.346,14.174,14.174c0,7.827-6.346,14.173-14.174,14.173s-14.174-6.346-14.174-14.173
	C169.283,90.988,175.628,84.643,183.457,84.643L183.457,84.643z M14.175,84.939c7.828,0,14.173,6.213,14.173,13.877
	c0,7.663-6.345,13.876-14.173,13.876c-7.828,0-14.173-6.213-14.173-13.876C0.001,91.152,6.347,84.939,14.175,84.939z"/>
</svg>
