<?xml version="1.0" encoding="utf-8"?>
<!-- Generator: Adobe Illustrator 16.0.0, SVG Export Plug-In . SVG Version: 6.00 Build 0)  -->
<!DOCTYPE svg PUBLIC "-//W3C//DTD SVG 1.1//EN" "http://www.w3.org/Graphics/SVG/1.1/DTD/svg11.dtd">
<svg version="1.1" id="图层_1" xmlns="http://www.w3.org/2000/svg" xmlns:xlink="http://www.w3.org/1999/xlink" x="0px" y="0px"
	 width="147.27px" height="203.369px" viewBox="0 0 147.27 203.369" enable-background="new 0 0 147.27 203.369"
	 xml:space="preserve">
<path fill="#404040" d="M31.181,162.204h85.04c1.565,0,2.834,1.27,2.834,2.835s-1.269,2.834-2.834,2.834h-85.04
	c-1.564,0-2.834-1.269-2.834-2.834S29.615,162.204,31.181,162.204L31.181,162.204z M105.631,13.802c1.564,0,2.835,1.27,2.835,2.835
	c0,1.565-1.271,2.834-2.835,2.834h-5.476c-1.564,0-2.835-1.269-2.835-2.834c0-1.565,1.271-2.835,2.835-2.835H105.631L105.631,13.802
	z M87.778,13.84c1.565,0,2.835,1.27,2.835,2.835s-1.27,2.835-2.835,2.835h-35.77c-1.565,0-2.835-1.271-2.835-2.835
	s1.27-2.835,2.835-2.835H87.778L87.778,13.84z M31.181,0C22.604,0,14.808,3.507,9.157,9.157C3.507,14.807,0,22.604,0,31.181v141.007
	c0,8.578,3.507,16.373,9.157,22.023c5.649,5.65,13.445,9.157,22.022,9.157h84.908c8.577,0,16.373-3.507,22.022-9.157
	c5.65-5.65,9.157-13.445,9.157-22.023V32.081h-5.669v140.107c0,7.013-2.871,13.391-7.496,18.016S123.1,197.7,116.087,197.7H31.181
	c-7.013,0-13.391-2.871-18.016-7.496s-7.496-11.003-7.496-18.016V31.181c0-7.013,2.871-13.391,7.496-18.016
	s11.003-7.496,18.016-7.496h84.908c7.013,0,13.391,2.871,18.016,7.496s7.496,11.003,7.496,18.016v0.334h5.669v-0.334
	c0-8.577-3.507-16.374-9.157-22.023C132.462,3.507,124.666,0,116.089,0H31.181L31.181,0z M41.13,13.84
	c1.564,0,2.834,1.27,2.834,2.835s-1.27,2.835-2.834,2.835c-1.566,0-2.835-1.271-2.835-2.835S39.563,13.84,41.13,13.84L41.13,13.84z
	 M73.7,174.685c4.696,0,8.504,3.809,8.504,8.504c0,4.696-3.808,8.504-8.504,8.504s-8.505-3.808-8.505-8.504
	C65.196,178.493,69.004,174.685,73.7,174.685z"/>
</svg>
