<?xml version="1.0" encoding="utf-8"?>
<!-- Generator: Adobe Illustrator 16.0.0, SVG Export Plug-In . SVG Version: 6.00 Build 0)  -->
<!DOCTYPE svg PUBLIC "-//W3C//DTD SVG 1.1//EN" "http://www.w3.org/Graphics/SVG/1.1/DTD/svg11.dtd">
<svg version="1.1" id="图层_1" xmlns="http://www.w3.org/2000/svg" xmlns:xlink="http://www.w3.org/1999/xlink" x="0px" y="0px"
	 width="203.318px" height="203.291px" viewBox="0 0 203.318 203.291" enable-background="new 0 0 203.318 203.291"
	 xml:space="preserve">
<path fill="#808080" d="M203.318,87.859v56.142c0,8.577-3.507,16.373-9.157,22.023c-5.649,5.649-13.446,9.156-22.022,9.156H31.181
	c-8.578,0-16.374-3.507-22.024-9.156S0,152.578,0,144.001V59.394C0,50.816,3.507,43.02,9.157,37.37s13.446-9.157,22.024-9.157
	h140.957c8.576,0,16.373,3.507,22.022,9.157c5.65,5.649,9.157,13.446,9.157,22.023v7.978
	c-33.89,12.452-67.779,24.899-101.671,37.346L15.723,72.125c-1.17-0.35-2.022-1.434-2.022-2.717c0-1.565,1.27-2.834,2.834-2.834
	c0.426,0,0.83,0.094,1.192,0.262l83.943,31.842l95.979-35.255v-4.029c0-7.013-2.871-13.391-7.496-18.016s-11.003-7.496-18.016-7.496
	H31.181c-7.014,0-13.392,2.871-18.017,7.496S5.669,52.381,5.669,59.394v84.607c0,7.014,2.872,13.391,7.497,18.016
	s11.002,7.496,18.017,7.496h140.957c7.013,0,13.39-2.871,18.015-7.496c4.626-4.625,7.497-11.002,7.497-18.016V87.859
	c0-1.565,1.269-2.834,2.834-2.834C202.05,85.025,203.318,86.294,203.318,87.859z"/>
</svg>
