<?xml version="1.0" encoding="utf-8"?>
<!-- Generator: Adobe Illustrator 16.0.0, SVG Export Plug-In . SVG Version: 6.00 Build 0)  -->
<!DOCTYPE svg PUBLIC "-//W3C//DTD SVG 1.1//EN" "http://www.w3.org/Graphics/SVG/1.1/DTD/svg11.dtd">
<svg version="1.1" id="图层_1" xmlns="http://www.w3.org/2000/svg" xmlns:xlink="http://www.w3.org/1999/xlink" x="0px" y="0px"
	 width="203.318px" height="203px" viewBox="0 0 203.318 203" enable-background="new 0 0 203.318 203" xml:space="preserve">
<path fill="#999999" d="M123.114,56.27l56.202,0.013c0.081-0.007,0.164-0.012,0.248-0.012c1.564,0,2.835,1.27,2.835,2.835
	s-1.271,2.835-2.835,2.835c-0.084,0-0.167-0.004-0.249-0.012l-56.202-0.013c-0.082,0.008-0.165,0.012-0.249,0.012
	c-1.565,0-2.834-1.27-2.834-2.835c0-1.565,1.269-2.835,2.834-2.835C122.949,56.258,123.032,56.262,123.114,56.27L123.114,56.27z
	 M179.561,84.616c1.564,0,2.835,1.27,2.835,2.835s-1.271,2.835-2.835,2.835c-0.084,0-0.167-0.004-0.25-0.012l-44.861-0.01
	c-0.082,0.007-0.165,0.011-0.248,0.011c-1.565,0-2.835-1.269-2.835-2.834s1.27-2.835,2.835-2.835c0.084,0,0.167,0.004,0.249,0.011
	l44.862,0.011C179.395,84.62,179.477,84.616,179.561,84.616L179.561,84.616z M95.234,98.754c0.682,0,1.307,0.24,1.796,0.642
	c6.098,4.458,11.112,10.311,14.569,17.086c3.356,6.58,5.251,14.027,5.251,21.914c0,1.564-1.27,2.834-2.835,2.834
	s-2.834-1.27-2.834-2.834c0-6.969-1.67-13.543-4.632-19.346c-3.054-5.984-7.479-11.15-12.859-15.084
	c-0.776-0.506-1.291-1.382-1.291-2.378C92.399,100.023,93.669,98.754,95.234,98.754L95.234,98.754z M25.947,138.396
	c0-8.683,2.589-16.75,7.034-23.475c4.223-6.386,10.115-11.566,17.056-14.923c2.121,2.219,4.646,4.062,7.456,5.411
	c3.364,1.615,7.12,2.52,11.071,2.52c3.947,0,7.702-0.904,11.067-2.521c3.063-1.472,5.786-3.525,8.021-6.017h0.05l0.854-1.063
	c1.793-2.233,3.222-4.779,4.192-7.545c0.938-2.671,1.449-5.529,1.449-8.488c0-7.079-2.869-13.487-7.508-18.126
	c-4.64-4.64-11.048-7.509-18.126-7.509c-7.079,0-13.487,2.869-18.126,7.509C45.8,68.809,42.93,75.217,42.93,82.296
	c0,1.565,1.269,2.834,2.835,2.834c1.564,0,2.834-1.269,2.834-2.834c0-5.514,2.234-10.506,5.848-14.118
	c3.613-3.612,8.604-5.848,14.118-5.848c5.513,0,10.505,2.235,14.118,5.848c3.611,3.612,5.847,8.604,5.847,14.118
	c0,2.339-0.394,4.569-1.117,6.628c-0.74,2.107-1.829,4.057-3.197,5.779l-0.065,0.083c-1.872,2.331-4.245,4.231-6.951,5.53
	c-2.598,1.246-5.524,1.944-8.633,1.944c-3.112,0-6.04-0.698-8.635-1.944c-2.707-1.299-5.079-3.199-6.949-5.53l-1.34-1.67
	l-1.972,0.839c-8.77,3.733-16.208,9.984-21.404,17.844c-5.049,7.635-7.987,16.777-7.987,26.598c0,1.564,1.27,2.834,2.835,2.834
	S25.947,139.961,25.947,138.396L25.947,138.396z M31.181,27.967c-8.577,0-16.373,3.508-22.023,9.158C3.507,42.774,0,50.57,0,59.148
	v84.907c0,8.578,3.507,16.375,9.157,22.024s13.446,9.157,22.023,9.157h140.957c8.576,0,16.374-3.508,22.022-9.157
	c5.641-5.642,9.146-13.421,9.157-21.981h-5.669c-0.012,6.996-2.881,13.357-7.496,17.973c-4.625,4.625-11.003,7.496-18.017,7.496
	H31.181c-7.014,0-13.392-2.871-18.017-7.496s-7.496-11.002-7.496-18.016V59.148c0-7.013,2.871-13.391,7.496-18.016
	s11.003-7.496,18.017-7.496h140.957c7.013,0,13.391,2.871,18.016,7.496s7.496,11.003,7.496,18.016v84.384h5.669V59.148
	c0-8.578-3.507-16.374-9.157-22.023c-5.648-5.65-13.446-9.158-22.022-9.158H31.181z"/>
</svg>
