<?xml version="1.0" encoding="utf-8"?>
<!-- Generator: Adobe Illustrator 16.0.0, SVG Export Plug-In . SVG Version: 6.00 Build 0)  -->
<!DOCTYPE svg PUBLIC "-//W3C//DTD SVG 1.1//EN" "http://www.w3.org/Graphics/SVG/1.1/DTD/svg11.dtd">
<svg version="1.1" id="图层_1" xmlns="http://www.w3.org/2000/svg" xmlns:xlink="http://www.w3.org/1999/xlink" x="0px" y="0px"
	 width="203.318px" height="203.25px" viewBox="0 0 203.318 203.25" enable-background="new 0 0 203.318 203.25"
	 xml:space="preserve">
<path fill="#808080" d="M31.181,28.251h140.957c8.576,0,16.373,3.507,22.022,9.157c5.65,5.649,9.157,13.446,9.157,22.023v84.607
	c0,8.578-3.507,16.374-9.157,22.022c-5.649,5.65-13.446,9.158-22.022,9.158H31.181c-8.578,0-16.374-3.508-22.024-9.158
	C3.507,160.413,0,152.617,0,144.039V59.432c0-8.577,3.507-16.374,9.157-22.023C14.807,31.758,22.604,28.251,31.181,28.251
	L31.181,28.251z M5.669,73.311l191.98,0.022V59.432c0-7.013-2.871-13.391-7.496-18.016s-11.003-7.496-18.016-7.496H31.181
	c-7.014,0-13.392,2.871-18.017,7.496S5.669,52.419,5.669,59.432V73.311L5.669,73.311z M197.649,87.577L5.669,87.555v56.484
	c0,7.014,2.872,13.391,7.497,18.016s11.002,7.496,18.017,7.496h140.957c7.013,0,13.391-2.871,18.016-7.496
	s7.496-11.002,7.496-18.016V87.577H197.649z M163.644,144.282c-3.118,0-5.67,2.551-5.672,5.669l-0.001,2.724
	c-0.001,3.118,2.55,5.669,5.668,5.671h2.653c3.118,0,5.67-2.552,5.672-5.67l0.001-2.724c0.001-3.118-2.55-5.669-5.667-5.67H163.644
	L163.644,144.282z M142.749,144.279c-3.118,0-5.67,2.552-5.671,5.67l-0.001,2.724c-0.001,3.118,2.549,5.669,5.668,5.67h2.654
	c3.118,0,5.67-2.551,5.671-5.669l0.001-2.724c0.001-3.118-2.549-5.669-5.667-5.671H142.749L142.749,144.279z M121.855,144.277
	c-3.118,0-5.67,2.552-5.671,5.67l-0.001,2.724c-0.002,3.118,2.549,5.669,5.667,5.67h2.654c3.118,0,5.67-2.551,5.671-5.669
	l0.002-2.725c0.001-3.117-2.55-5.668-5.667-5.668L121.855,144.277z"/>
</svg>
