<?xml version="1.0" encoding="utf-8"?>
<!-- Generator: Adobe Illustrator 16.0.0, SVG Export Plug-In . SVG Version: 6.00 Build 0)  -->
<!DOCTYPE svg PUBLIC "-//W3C//DTD SVG 1.1//EN" "http://www.w3.org/Graphics/SVG/1.1/DTD/svg11.dtd">
<svg version="1.1" id="图层_1" xmlns="http://www.w3.org/2000/svg" xmlns:xlink="http://www.w3.org/1999/xlink" x="0px" y="0px"
	 width="203.318px" height="203.5px" viewBox="0 0 203.318 203.5" enable-background="new 0 0 203.318 203.5" xml:space="preserve">
<path fill="#999999" d="M122.705,48.41c1.685-0.437,3.336-0.439,4.644-0.093c1.407,0.375,2.449,1.16,2.789,2.271l0.027,0.096
	c0.275,1.067-0.143,2.176-1.053,3.134c-0.838,0.882-2.119,1.65-3.651,2.119l-0.447,0.129c-1.691,0.438-3.347,0.44-4.651,0.094
	c-1.408-0.375-2.448-1.162-2.786-2.27l-0.031-0.108c-0.272-1.057,0.146-2.167,1.06-3.123c0.838-0.882,2.12-1.652,3.654-2.12
	L122.705,48.41L122.705,48.41z M31.181,28.452c-8.577,0-16.374,3.507-22.023,9.157C3.507,43.26,0,51.056,0,59.633v84.907
	c0,8.578,3.507,16.374,9.157,22.022c5.649,5.65,13.446,9.158,22.023,9.158h140.957c8.576,0,16.372-3.508,22.022-9.158
	c5.604-5.603,9.098-13.315,9.156-21.809h-5.67c-0.059,6.928-2.917,13.223-7.494,17.801c-4.625,4.625-11.003,7.496-18.016,7.496
	H31.181c-7.014,0-13.392-2.871-18.017-7.496s-7.496-11.003-7.496-18.016V59.633c0-7.013,2.871-13.391,7.496-18.016
	s11.003-7.496,18.017-7.496h140.957c7.013,0,13.391,2.871,18.016,7.496s7.496,11.003,7.496,18.016v84.555h5.669V59.633
	c0-8.577-3.507-16.373-9.157-22.023c-5.649-5.65-13.446-9.157-22.022-9.157L31.181,28.452L31.181,28.452z M113.375,71.466
	c1.126-1.023,2.521-1.572,3.863-1.63c1.368-0.059,2.692,0.391,3.642,1.358l0.105,0.111c0.874,0.96,1.229,2.21,1.102,3.473
	c-0.126,1.237-0.718,2.497-1.742,3.502l-0.173,0.161c-1.13,1.026-2.523,1.575-3.866,1.632c-1.368,0.059-2.694-0.39-3.643-1.357
	l-0.107-0.113c-0.872-0.962-1.228-2.209-1.1-3.473c0.126-1.236,0.718-2.494,1.745-3.499L113.375,71.466L113.375,71.466z
	 M137.581,57.225l1.411,0.013c1.621-0.037,2.669-0.374,2.635-1.88l-0.005-0.097c-0.071-1.09-0.82-2.014-1.984-2.636
	c-1.075-0.572-2.531-0.901-4.146-0.865l-0.463,0.021c-1.73,0.115-3.301,0.634-4.433,1.375c-1.219,0.798-1.958,1.872-1.934,3.028
	c0.03,1.282,0.739,1.643,1.927,1.617c0.524-0.013,1.157-0.116,1.874-0.232c0.75-0.122,1.607-0.265,2.537-0.326
	C135.915,57.184,136.796,57.206,137.581,57.225L137.581,57.225z M138.449,89.249c0.909-0.071,1.775-0.218,2.553-0.35l1.396-0.217
	c1.611-0.192,2.699-0.012,2.876,1.472l0.012,0.112c0.028,0.373-0.022,0.739-0.148,1.09c0.812-0.611,1.858-1.124,3.052-1.453
	l0.466-0.118c1.694-0.389,3.346-0.345,4.643,0.039c1.396,0.414,2.417,1.231,2.725,2.347l0.024,0.096
	c0.247,1.075-0.202,2.173-1.142,3.105c-0.867,0.858-2.17,1.593-3.718,2.017l-0.445,0.114c-1.7,0.391-3.351,0.347-4.646-0.037
	c-1.396-0.414-2.416-1.231-2.723-2.349l-0.03-0.109c-0.132-0.577-0.061-1.165,0.186-1.729c-0.971,0.661-2.297,1.144-3.802,1.327
	l-0.458,0.043c-1.738,0.137-3.363-0.151-4.592-0.721c-1.321-0.615-2.213-1.573-2.351-2.722c-0.154-1.277,0.499-1.736,1.684-1.878
	c0.519-0.062,1.156-0.051,1.883-0.037C136.647,89.304,137.516,89.32,138.449,89.249L138.449,89.249z M125.209,62.691
	c1.313-1.195,2.942-1.837,4.509-1.904c1.595-0.069,3.138,0.452,4.239,1.577l0.123,0.13c1.016,1.115,1.426,2.567,1.276,4.037
	c-0.147,1.441-0.84,2.908-2.038,4.082l-0.199,0.188c-1.315,1.196-2.945,1.839-4.513,1.906c-1.592,0.068-3.135-0.452-4.237-1.576
	L124.245,71c-1.013-1.114-1.425-2.565-1.275-4.034c0.146-1.442,0.838-2.91,2.035-4.083L125.209,62.691L125.209,62.691z
	 M148.412,60.86c1.126,1.322,1.854,2.812,2.113,4.139c0.275,1.428,0.022,2.709-0.822,3.495l-0.076,0.067
	c-0.839,0.715-2.02,0.823-3.277,0.425c-1.162-0.369-2.413-1.185-3.504-2.357l-0.312-0.348c-1.134-1.33-1.859-2.816-2.117-4.145
	c-0.276-1.428-0.026-2.705,0.821-3.494l0.086-0.078c0.83-0.706,2.009-0.814,3.268-0.414c1.159,0.368,2.411,1.185,3.503,2.354
	L148.412,60.86L148.412,60.86z M131.044,80.136c1.129,1.324,1.856,2.811,2.112,4.138c0.277,1.428,0.025,2.708-0.821,3.495
	l-0.077,0.067c-0.838,0.716-2.02,0.823-3.276,0.425c-1.162-0.369-2.413-1.185-3.505-2.357l-0.311-0.348
	c-1.134-1.33-1.858-2.816-2.117-4.146c-0.277-1.428-0.024-2.708,0.821-3.495l0.075-0.066c0.839-0.717,2.021-0.824,3.283-0.423
	c1.162,0.371,2.416,1.19,3.508,2.365L131.044,80.136L131.044,80.136z M155.158,67.242c0.998-0.909,2.234-1.396,3.425-1.445
	c1.218-0.053,2.396,0.347,3.242,1.208l0.09,0.095c0.782,0.86,1.1,1.975,0.985,3.1c-0.111,1.099-0.639,2.216-1.553,3.11l-0.146,0.136
	c-1.002,0.912-2.238,1.397-3.427,1.448c-1.217,0.053-2.396-0.348-3.241-1.207l-0.096-0.102c-0.779-0.856-1.094-1.971-0.979-3.095
	c0.11-1.097,0.64-2.212,1.547-3.103L155.158,67.242L155.158,67.242z M140.669,75.185c1.314-1.195,2.943-1.837,4.513-1.904
	c1.594-0.067,3.134,0.453,4.234,1.578l0.127,0.133c1.011,1.117,1.423,2.567,1.274,4.032c-0.146,1.439-0.835,2.906-2.032,4.079
	l-0.205,0.193c-1.318,1.196-2.946,1.838-4.512,1.905c-1.593,0.069-3.134-0.449-4.239-1.576l-0.125-0.132
	c-1.012-1.114-1.424-2.565-1.274-4.033c0.146-1.441,0.84-2.907,2.035-4.082L140.669,75.185L140.669,75.185z M154.71,81.124
	c1.521-0.849,3.116-1.267,4.468-1.263c1.455,0.007,2.664,0.503,3.271,1.488l0.053,0.087c0.537,0.963,0.414,2.141-0.227,3.299
	c-0.588,1.064-1.636,2.134-3,2.978l-0.397,0.232c-1.525,0.854-3.123,1.271-4.475,1.268c-1.456-0.006-2.664-0.506-3.271-1.489
	l-0.054-0.093c-0.535-0.957-0.412-2.134,0.228-3.289c0.585-1.064,1.628-2.13,2.99-2.973L154.71,81.124L154.71,81.124z
	 M168.583,61.319c1.521-0.848,3.117-1.266,4.467-1.261c1.456,0.006,2.665,0.505,3.271,1.488l0.051,0.087
	c0.54,0.964,0.417,2.142-0.222,3.298c-0.586,1.064-1.633,2.132-2.993,2.972l-0.406,0.238c-1.523,0.852-3.122,1.273-4.473,1.268
	c-1.459-0.005-2.666-0.506-3.273-1.489l-0.051-0.087c-0.539-0.963-0.414-2.142,0.227-3.299c0.588-1.063,1.634-2.134,2.994-2.974
	L168.583,61.319L168.583,61.319z M164.134,71.804c1.521-0.849,3.118-1.268,4.47-1.263c1.456,0.006,2.665,0.505,3.271,1.489
	l0.053,0.087c0.536,0.964,0.413,2.145-0.227,3.302c-0.591,1.067-1.638,2.135-3.005,2.978l-0.395,0.232
	c-1.523,0.849-3.121,1.271-4.473,1.265c-1.459-0.005-2.666-0.506-3.272-1.489l-0.05-0.082c-0.54-0.966-0.414-2.147,0.229-3.309
	c0.591-1.067,1.641-2.138,3.008-2.979L164.134,71.804L164.134,71.804z M100.7,77.629c1.521-0.849,3.117-1.267,4.469-1.263
	c1.455,0.006,2.664,0.506,3.271,1.489l0.053,0.087c0.537,0.963,0.414,2.142-0.227,3.299c-0.59,1.067-1.637,2.139-3.002,2.979
	l-0.396,0.23c-1.525,0.852-3.122,1.272-4.475,1.269c-1.457-0.006-2.666-0.505-3.271-1.49l-0.05-0.087
	c-0.538-0.963-0.414-2.145,0.227-3.301c0.59-1.064,1.634-2.134,2.996-2.972L100.7,77.629L100.7,77.629z M105.785,67.463
	c1.519-0.848,3.114-1.269,4.465-1.263c1.458,0.005,2.665,0.504,3.272,1.488l0.059,0.097c0.53,0.955,0.406,2.134-0.231,3.29
	c-0.588,1.065-1.636,2.137-2.999,2.978l-0.397,0.232c-1.525,0.854-3.125,1.271-4.477,1.267c-1.456-0.006-2.664-0.505-3.271-1.488
	l-0.058-0.096c-0.532-0.954-0.407-2.134,0.232-3.292c0.592-1.065,1.637-2.132,2.999-2.975L105.785,67.463L105.785,67.463z
	 M114.573,57.827c1.519-0.848,3.116-1.269,4.469-1.263c1.457,0.004,2.666,0.504,3.271,1.489l0.052,0.087
	c0.536,0.961,0.412,2.143-0.227,3.299c-0.591,1.066-1.638,2.135-3.005,2.978l-0.396,0.232c-1.524,0.854-3.122,1.271-4.472,1.268
	c-1.458-0.006-2.666-0.506-3.272-1.489l-0.058-0.096c-0.533-0.954-0.407-2.136,0.231-3.292c0.587-1.064,1.637-2.135,3.002-2.977
	L114.573,57.827z"/>
</svg>
