<?xml version="1.0" encoding="utf-8"?>
<!-- Generator: Adobe Illustrator 16.0.0, SVG Export Plug-In . SVG Version: 6.00 Build 0)  -->
<!DOCTYPE svg PUBLIC "-//W3C//DTD SVG 1.1//EN" "http://www.w3.org/Graphics/SVG/1.1/DTD/svg11.dtd">
<svg version="1.1" id="图层_1" xmlns="http://www.w3.org/2000/svg" xmlns:xlink="http://www.w3.org/1999/xlink" x="0px" y="0px"
	 width="151.686px" height="197.68px" viewBox="0 0 151.686 197.68" enable-background="new 0 0 151.686 197.68"
	 xml:space="preserve">
<path fill="#FF4444" d="M59.869,197.679C-58.07,140.463,37.765,105.721,20.045,48.417c9.688,7.869,16.608,15.226,21.513,22.271
	C44.24,54.142,54.321,31.891,77.376,0c-7.028,27.441,10.06,46.686,23.687,65.886c2.792-11.497,9.35-23.744,22.079-37.284
	c-9.521,56.903,77.165,91.96-12.44,146.773c6.113-18.779,2.78-35.194-1.813-51.094c-6.613,11.053-18.418,23.446-37.614,37.829
	c8.613-26.464-7.022-37.273-18.909-52.169C51.219,134.587,41.248,160.353,59.869,197.679z"/>
</svg>
