<?xml version="1.0" encoding="utf-8"?>
<!-- Generator: Adobe Illustrator 16.0.0, SVG Export Plug-In . SVG Version: 6.00 Build 0)  -->
<!DOCTYPE svg PUBLIC "-//W3C//DTD SVG 1.1//EN" "http://www.w3.org/Graphics/SVG/1.1/DTD/svg11.dtd">
<svg version="1.1" id="图层_1" xmlns="http://www.w3.org/2000/svg" xmlns:xlink="http://www.w3.org/1999/xlink" x="0px" y="0px"
	 width="169.718px" height="198.035px" viewBox="0 0 169.718 198.035" enable-background="new 0 0 169.718 198.035"
	 xml:space="preserve">
<path fill="#FF4444" d="M0.396,84.661C0.396,37.91,38.308,0,85.057,0c46.757,0,84.661,37.904,84.661,84.661
	c0,38.146-25.231,70.396-59.914,80.981C56.925,184.188,24.855,159.393,0,198.035L0.396,84.661L0.396,84.661z M127.921,70.975
	c-7.768,0-14.063,6.297-14.063,14.064s6.297,14.064,14.063,14.064c7.768,0,14.064-6.296,14.064-14.064
	S135.689,70.975,127.921,70.975L127.921,70.975z M85.184,70.975c-7.768,0-14.063,6.297-14.063,14.064s6.296,14.064,14.063,14.064
	c7.767,0,14.063-6.296,14.063-14.064S92.951,70.975,85.184,70.975L85.184,70.975z M42.446,70.975
	c-7.767,0-14.064,6.297-14.064,14.064s6.297,14.064,14.064,14.064c7.768,0,14.064-6.296,14.064-14.064S50.213,70.975,42.446,70.975z
	"/>
</svg>
