<?xml version="1.0" encoding="utf-8"?>
<!-- Generator: Adobe Illustrator 16.0.0, SVG Export Plug-In . SVG Version: 6.00 Build 0)  -->
<!DOCTYPE svg PUBLIC "-//W3C//DTD SVG 1.1//EN" "http://www.w3.org/Graphics/SVG/1.1/DTD/svg11.dtd">
<svg version="1.1" id="图层_1" xmlns="http://www.w3.org/2000/svg" xmlns:xlink="http://www.w3.org/1999/xlink" x="0px" y="0px"
	 width="197.676px" height="197.833px" viewBox="0 0 197.676 197.833" enable-background="new 0 0 197.676 197.833"
	 xml:space="preserve">
<path fill="#CCCCCC" d="M197.676,98.819C131.994,23.451,66.103,23.149,0,98.819C66.696,175.17,132.58,174.467,197.676,98.819
	L197.676,98.819z M98.838,72.25c14.773,0,26.75,11.977,26.75,26.75s-11.977,26.749-26.75,26.749
	c-14.773,0-26.75-11.976-26.75-26.749c0-7.672,3.23-14.588,8.404-19.466c-1.158,1.647-1.839,3.654-1.839,5.82
	c0,5.596,4.536,10.131,10.131,10.131c5.595,0,10.131-4.535,10.131-10.131c0-5.595-4.536-10.13-10.131-10.13
	c-1.088,0-2.136,0.172-3.118,0.489C89.554,73.51,94.049,72.25,98.838,72.25L98.838,72.25z M98.838,56.319
	c23.571,0,42.682,19.108,42.682,42.681c0,23.571-19.109,42.68-42.682,42.68c-23.572,0-42.681-19.109-42.681-42.68
	C56.157,75.428,75.266,56.319,98.838,56.319z"/>
</svg>
