<?xml version="1.0" encoding="utf-8"?>
<!-- Generator: Adobe Illustrator 16.0.0, SVG Export Plug-In . SVG Version: 6.00 Build 0)  -->
<!DOCTYPE svg PUBLIC "-//W3C//DTD SVG 1.1//EN" "http://www.w3.org/Graphics/SVG/1.1/DTD/svg11.dtd">
<svg version="1.1" id="图层_1" xmlns="http://www.w3.org/2000/svg" xmlns:xlink="http://www.w3.org/1999/xlink" x="0px" y="0px"
	 width="203.326px" height="203.469px" viewBox="0 0 203.326 203.469" enable-background="new 0 0 203.326 203.469"
	 xml:space="preserve">
<path fill="#55CC77" d="M77.757,33.862H8.503c-0.783,0-1.491,0.315-1.999,0.824l-0.012,0.011c-0.508,0.509-0.823,1.217-0.823,2
	v158.284H5.658c0.002,0.77,0.325,1.479,0.846,1.997c0.512,0.514,1.214,0.832,1.982,0.832v-0.012h0.017v0.012l146.373-0.436
	l-0.096-33.96h-0.012v-0.02h0.012c0.001-2.336,0.957-4.455,2.492-5.99c1.527-1.526,3.646-2.478,5.98-2.483v-0.011h0.02v0.011
	l29.793,0.021v5.647l-29.793-0.021v0.012h-0.02v-0.012c-0.768,0.002-1.475,0.325-1.995,0.846c-0.512,0.512-0.831,1.215-0.831,1.981
	h0.012v0.02h-0.012l0.084,30.015l33.121-32.838l0,0l0,0l0.001-0.001h-0.001v-5.647l4.024,0.004V36.697c0-0.776-0.32-1.484-0.835-2
	c-0.516-0.515-1.223-0.835-2-0.835H125.8v7.817h-5.669V8.504c0-0.777-0.319-1.485-0.835-2c-0.516-0.516-1.225-0.835-2-0.835H86.261
	c-0.776,0-1.485,0.319-2,0.835c-0.515,0.515-0.835,1.223-0.835,2v33.752h36.707v-0.009h5.669v0.009h18.352
	c1.566,0,2.836,1.27,2.836,2.835c0,1.564-1.27,2.835-2.836,2.835h-18.352l0,0H77.757l0,0H59.216c-1.565,0-2.834-1.271-2.834-2.835
	c0-1.565,1.269-2.835,2.834-2.835h18.541V33.862L77.757,33.862z M44.966,76.051c-1.565,0-2.835-1.271-2.835-2.835
	c0-1.565,1.27-2.834,2.835-2.834h112.945c1.564,0,2.835,1.269,2.835,2.834c0,1.564-1.271,2.835-2.835,2.835H44.966L44.966,76.051z
	 M114.593,174.928h-9.271V115.9c-2.229,2.144-5.161,4.268-8.778,6.393c-3.617,2.124-6.882,3.722-9.762,4.774v-8.955
	c5.18-2.422,9.709-5.372,13.59-8.849c3.88-3.458,6.637-6.813,8.252-10.078h5.97V174.928L114.593,174.928z M125.802,28.193h69.021
	c2.342,0,4.469,0.956,6.009,2.496c1.539,1.539,2.495,3.666,2.495,6.008v122.244c-14.814,14.691-29.631,29.384-44.449,44.069
	L8.503,203.457v0.012H8.486v-0.012c-2.335,0-4.456-0.955-5.991-2.492c-1.527-1.529-2.478-3.648-2.484-5.983H0V36.697
	c0-2.328,0.955-4.45,2.495-5.996l0.012-0.012c1.545-1.541,3.668-2.496,5.996-2.496h69.254V8.504c0-2.342,0.956-4.469,2.496-6.008
	C81.793,0.956,83.92,0,86.261,0h31.037c2.342,0,4.469,0.956,6.008,2.496c1.541,1.539,2.496,3.666,2.496,6.008V28.193z"/>
</svg>
