<?xml version="1.0" encoding="utf-8"?>
<!-- Generator: Adobe Illustrator 16.0.0, SVG Export Plug-In . SVG Version: 6.00 Build 0)  -->
<!DOCTYPE svg PUBLIC "-//W3C//DTD SVG 1.1//EN" "http://www.w3.org/Graphics/SVG/1.1/DTD/svg11.dtd">
<svg version="1.1" id="图层_1" xmlns="http://www.w3.org/2000/svg" xmlns:xlink="http://www.w3.org/1999/xlink" x="0px" y="0px"
	 width="203.379px" height="203.379px" viewBox="0 0 203.379 203.379" enable-background="new 0 0 203.379 203.379"
	 xml:space="preserve">
<path fill="#EECC22" d="M101.69,0c28.08,0,53.503,11.382,71.904,29.784c18.402,18.401,29.785,43.824,29.785,71.905
	c0,28.081-11.383,53.502-29.785,71.904c-18.4,18.402-43.824,29.785-71.904,29.785c-28.081,0-53.503-11.383-71.905-29.785
	C11.383,155.191,0,129.77,0,101.689c0-28.081,11.383-53.504,29.785-71.905C48.187,11.382,73.609,0,101.69,0L101.69,0z
	 M104.457,172.516v-14.621c7.064-0.654,13.41-3.795,18.152-8.537c5.354-5.354,8.664-12.75,8.664-20.918
	c0-8.17-3.312-15.565-8.664-20.92c-4.674-4.672-10.903-7.79-17.846-8.506v5.708c5.375,0.688,10.191,3.163,13.836,6.807
	c4.328,4.328,7.006,10.308,7.006,16.912c0,6.604-2.678,12.582-7.006,16.91c-3.713,3.715-8.645,6.213-14.143,6.846v-47.209v-0.305
	v-5.699v-0.758V51.043h22.193c1.565,0,2.836-1.27,2.836-2.835s-1.271-2.835-2.836-2.835h-22.193V30.766
	c0-1.566-1.27-2.835-2.834-2.835c-1.565,0-2.835,1.269-2.835,2.835v14.391v0.35v5.684v0.729v46.76
	c-5.444-0.658-10.325-3.146-14.009-6.83c-4.327-4.327-7.004-10.307-7.004-16.91c0-6.448,2.545-12.296,6.683-16.593
	c3.654-3.794,8.546-6.384,14.023-7.118v-5.691c-7.084,0.766-13.417,4.028-18.099,8.89c-5.125,5.321-8.276,12.553-8.276,20.513
	c0,8.169,3.312,15.565,8.666,20.919c4.711,4.712,11.006,7.842,18.017,8.524v47.953h-24.45c-1.565,0-2.834,1.269-2.834,2.834
	s1.269,2.835,2.834,2.835h24.449v14.512c0,1.564,1.27,2.834,2.835,2.834C103.188,175.352,104.457,174.081,104.457,172.516
	L104.457,172.516z M169.586,33.792C152.21,16.416,128.206,5.669,101.69,5.669S51.168,16.416,33.793,33.792
	C16.417,51.168,5.669,75.174,5.669,101.689s10.748,50.521,28.124,67.896c17.375,17.375,41.381,28.123,67.897,28.123
	s50.521-10.748,67.896-28.123c17.376-17.376,28.123-41.382,28.123-67.896C197.709,75.174,186.962,51.168,169.586,33.792z"/>
</svg>
