<?xml version="1.0" encoding="utf-8"?>
<!-- Generator: Adobe Illustrator 16.0.0, SVG Export Plug-In . SVG Version: 6.00 Build 0)  -->
<!DOCTYPE svg PUBLIC "-//W3C//DTD SVG 1.1//EN" "http://www.w3.org/Graphics/SVG/1.1/DTD/svg11.dtd">
<svg version="1.1" id="图层_1" xmlns="http://www.w3.org/2000/svg" xmlns:xlink="http://www.w3.org/1999/xlink" x="0px" y="0px"
	 width="182.458px" height="203.408px" viewBox="0 0 182.458 203.408" enable-background="new 0 0 182.458 203.408"
	 xml:space="preserve">
<path fill="#808080" d="M91.229,0c15.88,0,30.257,6.437,40.664,16.844c10.406,10.407,16.844,24.784,16.844,40.664
	c0,15.879-6.438,30.256-16.844,40.663c-5.841,5.842-12.934,10.432-20.839,13.334c17.233,3.819,32.636,12.512,44.684,24.559
	c16.511,16.511,26.722,39.317,26.722,64.51c0,1.564-1.27,2.835-2.836,2.835c-1.564,0-2.834-1.271-2.834-2.835
	c0-23.627-9.576-45.018-25.06-60.5c-15.459-15.459-36.808-25.029-60.391-25.059h-0.11H91.12c-23.584,0.029-44.932,9.6-60.391,25.059
	c-15.483,15.482-25.06,36.873-25.06,60.5c0,1.564-1.269,2.835-2.834,2.835c-1.566,0-2.834-1.271-2.834-2.835
	c0-25.192,10.211-47.999,26.721-64.51c12.047-12.047,27.449-20.739,44.684-24.559c-7.906-2.904-14.999-7.494-20.839-13.334
	C40.159,87.764,33.722,73.387,33.722,57.508c0-15.88,6.437-30.257,16.844-40.664C60.973,6.437,75.349,0,91.229,0L91.229,0z
	 M91.117,109.345h0.112h0.112c14.271-0.031,27.188-5.826,36.542-15.182c9.382-9.38,15.185-22.34,15.185-36.655
	s-5.803-27.275-15.185-36.655c-9.379-9.381-22.34-15.184-36.654-15.184c-14.314,0-27.275,5.803-36.655,15.184
	c-9.381,9.38-15.183,22.34-15.183,36.655c0,14.314,5.802,27.274,15.183,36.655C63.93,103.519,76.846,109.313,91.117,109.345z"/>
</svg>
