<?xml version="1.0" encoding="utf-8"?>
<!-- Generator: Adobe Illustrator 16.0.0, SVG Export Plug-In . SVG Version: 6.00 Build 0)  -->
<!DOCTYPE svg PUBLIC "-//W3C//DTD SVG 1.1//EN" "http://www.w3.org/Graphics/SVG/1.1/DTD/svg11.dtd">
<svg version="1.1" id="图层_1" xmlns="http://www.w3.org/2000/svg" xmlns:xlink="http://www.w3.org/1999/xlink" x="0px" y="0px"
	 width="197.708px" height="191.361px" viewBox="0 0 197.708 191.361" enable-background="new 0 0 197.708 191.361"
	 xml:space="preserve">
<path fill="#FF7755" d="M105.113,1.485l86.402,51.796c1.062,0.634,1.856,1.428,2.39,2.315c0.551,0.922,0.813,1.922,0.785,2.949
	c-0.025,0.987-0.313,1.961-0.859,2.87c-0.633,1.06-1.627,2.04-2.959,2.839l-85.113,51.021c-1.911,1.146-4.303,1.773-6.614,1.861
	c-2.375,0.089-4.748-0.396-6.548-1.475L6.194,63.869c-1.06-0.635-1.856-1.428-2.389-2.314c-0.551-0.923-0.812-1.923-0.785-2.95
	c0.026-0.987,0.313-1.961,0.858-2.87c0.634-1.06,1.628-2.04,2.96-2.84L91.951,1.873c1.912-1.146,4.304-1.772,6.615-1.861
	C100.939-0.078,103.313,0.406,105.113,1.485L105.113,1.485z M2.811,127.709L2.811,127.709c0.609,0,1.173,0.194,1.633,0.522
	l94.411,56.596l94.411-56.596c0.46-0.328,1.023-0.522,1.634-0.522c1.552,0,2.81,1.258,2.81,2.812c0,1.104-0.637,2.06-1.563,2.519
	l-97.291,58.323l-97.29-58.323C0.638,132.579,0,131.624,0,130.52C0,128.967,1.259,127.709,2.811,127.709L2.811,127.709z
	 M2.811,91.224L2.811,91.224C1.259,91.224,0,92.481,0,94.034c0,1.104,0.638,2.061,1.565,2.52l97.29,58.321l97.291-58.321
	c0.927-0.459,1.563-1.414,1.563-2.52c0-1.553-1.258-2.811-2.811-2.811c-0.609,0-1.174,0.192-1.634,0.521l-94.411,56.597
	L4.443,91.746C3.984,91.417,3.42,91.224,2.811,91.224z"/>
</svg>
