<?xml version="1.0" encoding="utf-8"?>
<!-- Generator: Adobe Illustrator 16.0.0, SVG Export Plug-In . SVG Version: 6.00 Build 0)  -->
<!DOCTYPE svg PUBLIC "-//W3C//DTD SVG 1.1//EN" "http://www.w3.org/Graphics/SVG/1.1/DTD/svg11.dtd">
<svg version="1.1" id="图层_1" xmlns="http://www.w3.org/2000/svg" xmlns:xlink="http://www.w3.org/1999/xlink" x="0px" y="0px"
	 width="203.379px" height="203.379px" viewBox="0 0 203.379 203.379" enable-background="new 0 0 203.379 203.379"
	 xml:space="preserve">
<path fill="#CC7744" d="M101.689,0c28.081,0,53.502,11.383,71.905,29.784c18.401,18.402,29.784,43.825,29.784,71.905
	c0,28.081-11.383,53.502-29.784,71.905c-18.402,18.402-43.824,29.784-71.905,29.784c-28.08,0-53.503-11.382-71.905-29.784
	C11.382,155.191,0,129.77,0,101.689c0-28.081,11.382-53.503,29.784-71.905C48.187,11.383,73.609,0,101.689,0L101.689,0z
	 M143.984,98.854h-39.467l0.131-67.933c0.008-0.084,0.013-0.169,0.013-0.255c0-1.565-1.269-2.834-2.835-2.834
	c-1.565,0-2.834,1.269-2.834,2.834c0,0.082,0.003,0.164,0.011,0.244l-0.142,73.613h45.124c1.566,0,2.836-1.271,2.836-2.835
	S145.551,98.854,143.984,98.854L143.984,98.854z M169.586,33.793C152.21,16.417,128.205,5.669,101.689,5.669
	S51.168,16.417,33.792,33.793C16.417,51.169,5.669,75.174,5.669,101.689s10.748,50.521,28.124,67.897
	c17.376,17.375,41.381,28.123,67.897,28.123s50.521-10.748,67.896-28.123c17.376-17.377,28.124-41.382,28.124-67.897
	S186.962,51.169,169.586,33.793z"/>
</svg>
