<?xml version="1.0" encoding="utf-8"?>
<!-- Generator: Adobe Illustrator 16.0.0, SVG Export Plug-In . SVG Version: 6.00 Build 0)  -->
<!DOCTYPE svg PUBLIC "-//W3C//DTD SVG 1.1//EN" "http://www.w3.org/Graphics/SVG/1.1/DTD/svg11.dtd">
<svg version="1.1" id="图层_1" xmlns="http://www.w3.org/2000/svg" xmlns:xlink="http://www.w3.org/1999/xlink" x="0px" y="0px"
	 width="197.675px" height="197.675px" viewBox="0 0 197.675 197.675" enable-background="new 0 0 197.675 197.675"
	 xml:space="preserve">
<path fill="#55CC77" d="M98.855,0c54.586,0.01,98.829,44.269,98.818,98.855c-0.01,54.586-44.269,98.829-98.854,98.818
	C44.233,197.666-0.01,153.406,0,98.819C0.01,44.233,44.269-0.01,98.855,0L98.855,0z M44.11,157.272l16.407,0.003l12.686-35.424
	l49.22,0.009l13.518,35.429l17.604,0.004L105.977,40.394l-17.005-0.003L44.11,157.272L44.11,157.272z M77.749,109.282l39.834,0.007
	l-12.186-32.408c-3.671-9.85-6.445-17.986-8.376-24.408c-1.606,7.618-3.757,15.101-6.452,22.501L77.749,109.282z"/>
</svg>
