<?xml version="1.0" encoding="utf-8"?>
<!-- Generator: Adobe Illustrator 16.0.0, SVG Export Plug-In . SVG Version: 6.00 Build 0)  -->
<!DOCTYPE svg PUBLIC "-//W3C//DTD SVG 1.1//EN" "http://www.w3.org/Graphics/SVG/1.1/DTD/svg11.dtd">
<svg version="1.1" id="图层_1" xmlns="http://www.w3.org/2000/svg" xmlns:xlink="http://www.w3.org/1999/xlink" x="0px" y="0px"
	 width="203.311px" height="203.311px" viewBox="0 0 203.311 203.311" enable-background="new 0 0 203.311 203.311"
	 xml:space="preserve">
<path fill="#55CC77" d="M101.655,0c28.071,0,53.485,11.379,71.88,29.774c18.396,18.396,29.774,43.811,29.774,71.881
	s-11.378,53.484-29.774,71.881c-18.396,18.396-43.81,29.773-71.88,29.773s-53.485-11.378-71.88-29.773
	C11.378,155.14,0,129.726,0,101.655s11.378-53.484,29.774-71.881C48.17,11.379,73.584,0,101.655,0L101.655,0z M76.043,159.19
	l56.462-112.925c0.271-0.436,0.43-0.948,0.43-1.498c0-1.565-1.271-2.835-2.835-2.835c-1.205,0-2.234,0.752-2.646,1.812
	L70.993,156.669c-0.271,0.437-0.428,0.948-0.428,1.498c0,1.565,1.269,2.835,2.834,2.835C74.604,161.002,75.633,160.25,76.043,159.19
	L76.043,159.19z M130.489,98.712v5.672c2.982,0.103,5.687,1.364,7.67,3.35c2.07,2.069,3.355,4.923,3.355,8.06v14.025
	c0,3.137-1.285,5.99-3.355,8.061c-2.069,2.069-4.923,3.354-8.06,3.354c-3.138,0-5.99-1.285-8.062-3.354
	c-2.068-2.069-3.354-4.924-3.354-8.061v-14.025c0-3.137,1.286-5.989,3.354-8.06c2.031-2.031,4.816-3.308,7.883-3.354V98.71
	c-4.631,0.048-8.835,1.959-11.891,5.016c-3.095,3.096-5.017,7.366-5.017,12.067v14.025c0,4.701,1.921,8.974,5.017,12.068
	c3.095,3.095,7.367,5.017,12.068,5.017c4.7,0,8.974-1.922,12.067-5.017c3.094-3.096,5.018-7.367,5.018-12.068v-14.025
	c0-4.701-1.922-8.973-5.018-12.067C139.158,100.715,135.036,98.815,130.489,98.712L130.489,98.712z M73.099,56.183
	c-4.577,0-8.737,1.871-11.75,4.885c-3.014,3.013-4.885,7.172-4.885,11.75v14.625c0,4.577,1.871,8.736,4.885,11.75
	c3.002,3.002,7.143,4.87,11.699,4.884v-5.669c-2.992-0.014-5.714-1.246-7.691-3.223c-1.988-1.988-3.224-4.73-3.224-7.742V72.817
	c0-3.013,1.235-5.754,3.224-7.742c1.989-1.988,4.729-3.224,7.742-3.224c3.013,0,5.754,1.234,7.741,3.224
	c1.989,1.988,3.225,4.729,3.225,7.742v14.625c0,3.013-1.235,5.754-3.225,7.742c-1.874,1.874-4.417,3.078-7.226,3.211v5.673
	c4.374-0.135,8.334-1.977,11.234-4.876c3.014-3.014,4.885-7.173,4.885-11.75V72.817c0-4.578-1.871-8.737-4.885-11.751
	C81.836,58.054,77.677,56.183,73.099,56.183L73.099,56.183z M169.527,33.782C152.158,16.413,128.161,5.67,101.655,5.67
	S51.152,16.413,33.782,33.782C16.413,51.152,5.669,75.149,5.669,101.655s10.744,50.503,28.113,67.872
	c17.37,17.37,41.367,28.113,67.873,28.113s50.503-10.743,67.873-28.113c17.369-17.369,28.113-41.366,28.113-67.872
	S186.896,51.152,169.527,33.782z"/>
</svg>
