<?xml version="1.0" encoding="utf-8"?>
<!-- Generator: Adobe Illustrator 16.0.0, SVG Export Plug-In . SVG Version: 6.00 Build 0)  -->
<!DOCTYPE svg PUBLIC "-//W3C//DTD SVG 1.1//EN" "http://www.w3.org/Graphics/SVG/1.1/DTD/svg11.dtd">
<svg version="1.1" id="图层_1" xmlns="http://www.w3.org/2000/svg" xmlns:xlink="http://www.w3.org/1999/xlink" x="0px" y="0px"
	 width="175.748px" height="204.156px" viewBox="0 0 175.748 204.156" enable-background="new 0 0 175.748 204.156"
	 xml:space="preserve">
<path fill="#999999" d="M8.504,99.274h26.929V52.441c0-14.481,5.87-27.591,15.36-37.081C60.282,5.87,73.394,0,87.874,0
	c14.48,0,27.591,5.87,37.081,15.36c9.489,9.49,15.358,22.601,15.358,37.081c0,1.565-1.269,2.834-2.834,2.834
	s-2.834-1.27-2.834-2.834c0-12.916-5.235-24.609-13.699-33.073c-8.463-8.464-20.156-13.699-33.072-13.699
	s-24.609,5.235-33.073,13.699c-8.463,8.464-13.698,20.157-13.698,33.073v46.833h126.142c2.341,0,4.468,0.956,6.008,2.496
	s2.496,3.666,2.496,6.008v87.874c0,2.342-0.956,4.469-2.496,6.008s-3.667,2.496-6.008,2.496H8.504c-2.342,0-4.469-0.956-6.008-2.496
	C0.956,200.121,0,197.994,0,195.652v-87.874c0-2.342,0.956-4.468,2.496-6.008C4.035,100.23,6.162,99.274,8.504,99.274L8.504,99.274z
	 M90.756,172.735v-39.662h25.504c1.565,0,2.835-1.269,2.835-2.834c0-1.566-1.27-2.835-2.835-2.835H59.524
	c-1.565,0-2.835,1.269-2.835,2.835c0,1.565,1.27,2.834,2.835,2.834h25.563v39.662c0,1.564,1.269,2.834,2.835,2.834
	C89.487,175.569,90.756,174.3,90.756,172.735L90.756,172.735z M167.244,104.943H8.504c-0.777,0-1.485,0.32-2,0.835
	s-0.835,1.224-0.835,2v87.874c0,0.777,0.32,1.485,0.835,2s1.223,0.835,2,0.835h158.74c0.776,0,1.483-0.32,2-0.835
	c0.515-0.515,0.834-1.223,0.834-2v-87.874c0-0.776-0.319-1.485-0.834-2C168.729,105.264,168.021,104.943,167.244,104.943z"/>
</svg>
