<?xml version="1.0" encoding="utf-8"?>
<!-- Generator: Adobe Illustrator 16.0.0, SVG Export Plug-In . SVG Version: 6.00 Build 0)  -->
<!DOCTYPE svg PUBLIC "-//W3C//DTD SVG 1.1//EN" "http://www.w3.org/Graphics/SVG/1.1/DTD/svg11.dtd">
<svg version="1.1" id="图层_1" xmlns="http://www.w3.org/2000/svg" xmlns:xlink="http://www.w3.org/1999/xlink" x="0px" y="0px"
	 width="197.223px" height="197.104px" viewBox="0 0 197.223 197.104" enable-background="new 0 0 197.223 197.104"
	 xml:space="preserve">
<path fill="#55CC77" d="M0,27.729h197.223v141.686H0V27.729L0,27.729z M121.852,47.439l-16.463,5.617l-3.647-8.022L57.107,62.41
	H52.83c-1.873,0-3.405,1.532-3.405,3.404v65.514c0,1.873,1.533,3.404,3.405,3.404h91.562c1.873,0,3.404-1.531,3.404-3.404v-20.78
	h-25.772c-1.401,0-2.677-0.574-3.603-1.499l-0.007-0.007c-0.925-0.925-1.499-2.2-1.499-3.603V91.703
	c0-1.401,0.574-2.678,1.499-3.603v-0.007c0.925-0.925,2.202-1.499,3.608-1.499h25.772v-20.78c0-1.872-1.531-3.404-3.404-3.404
	H66.462l33.515-13.049l2.181,4.799l-16.702,5.698h42.042L121.852,47.439L121.852,47.439z M127.617,96.275
	c-0.939,0-1.703,0.763-1.703,1.702c0,0.94,0.764,1.703,1.703,1.703s1.702-0.763,1.702-1.703
	C129.319,97.037,128.556,96.275,127.617,96.275L127.617,96.275z M147.796,90.001h-25.772c-0.466,0-0.893,0.191-1.201,0.501
	l-0.003-0.003c-0.308,0.309-0.498,0.734-0.498,1.204v13.736c0,0.47,0.19,0.896,0.498,1.204c0.309,0.309,0.735,0.498,1.204,0.498
	h25.772V90.001z"/>
</svg>
