<?xml version="1.0" encoding="utf-8"?>
<!-- Generator: Adobe Illustrator 16.0.0, SVG Export Plug-In . SVG Version: 6.00 Build 0)  -->
<!DOCTYPE svg PUBLIC "-//W3C//DTD SVG 1.1//EN" "http://www.w3.org/Graphics/SVG/1.1/DTD/svg11.dtd">
<svg version="1.1" id="图层_1" xmlns="http://www.w3.org/2000/svg" xmlns:xlink="http://www.w3.org/1999/xlink" x="0px" y="0px"
	 width="197.674px" height="197.75px" viewBox="0 0 197.674 197.75" enable-background="new 0 0 197.674 197.75"
	 xml:space="preserve">
<path fill="#FF66FF" d="M0,27.929h197.674v141.938H0V27.929L0,27.929z M60.732,63.575h95.382c0.391,0,0.744,0.158,1.002,0.413
	c0.255,0.257,0.412,0.611,0.412,1.001v51.35c0,0.938,0.762,1.697,1.699,1.697c0.937,0,1.697-0.761,1.697-1.697v-51.35
	c0-1.319-0.541-2.521-1.412-3.393l-0.007-0.007c-0.871-0.87-2.071-1.411-3.394-1.411h-95.38c-0.938,0-1.698,0.76-1.698,1.698
	S59.795,63.575,60.732,63.575L60.732,63.575z M48.501,69.188c-1.868,0-3.397,1.528-3.397,3.396v52.627
	c0,1.869,1.529,3.396,3.397,3.396h100.673c1.868,0,3.396-1.527,3.396-3.396V72.584c0-1.868-1.527-3.396-3.396-3.396H48.501
	L48.501,69.188z M111.897,83.745c0.244-0.294,0.391-0.671,0.391-1.083c0-0.938-0.76-1.699-1.698-1.699
	c-0.616,0-1.157,0.33-1.454,0.823l-11.853,16.69L85.43,81.786c-0.297-0.493-0.838-0.823-1.455-0.823
	c-0.938,0-1.698,0.762-1.698,1.699c0,0.412,0.146,0.789,0.391,1.083l12.917,18.189v1.968H85.73c-0.938,0-1.698,0.761-1.698,1.697
	c0,0.938,0.761,1.698,1.698,1.698h9.854v10.211c0,0.938,0.76,1.699,1.698,1.699s1.698-0.761,1.698-1.699v-10.211h9.854
	c0.938,0,1.698-0.76,1.698-1.698s-0.76-1.697-1.698-1.697H98.98v-1.968L111.897,83.745z"/>
</svg>
