<?xml version="1.0" encoding="utf-8"?>
<!-- Generator: Adobe Illustrator 16.0.0, SVG Export Plug-In . SVG Version: 6.00 Build 0)  -->
<!DOCTYPE svg PUBLIC "-//W3C//DTD SVG 1.1//EN" "http://www.w3.org/Graphics/SVG/1.1/DTD/svg11.dtd">
<svg version="1.1" id="图层_1" xmlns="http://www.w3.org/2000/svg" xmlns:xlink="http://www.w3.org/1999/xlink" x="0px" y="0px"
	 width="198.367px" height="198.625px" viewBox="0 0 198.367 198.625" enable-background="new 0 0 198.367 198.625"
	 xml:space="preserve">
<path fill="#44BBFF" d="M0,28.598h198.367v141.756H0V28.598L0,28.598z M139.518,79.006v56.841h11.237V79.006H139.518L139.518,79.006
	z M149.043,45.625H131.9c-0.944,0-1.713,0.768-1.713,1.713c0,0.946,0.769,1.713,1.713,1.713h14.076
	c-10.141,16.544-22.908,28.533-38.018,36.531c-15.865,8.4-34.339,12.425-55.084,12.724c-0.04-0.003-0.08-0.005-0.121-0.005
	c-0.945,0-1.713,0.768-1.713,1.713s0.768,1.712,1.713,1.712c0.061,0,0.119-0.003,0.178-0.009
	c21.285-0.309,40.271-4.456,56.621-13.111c14.885-7.88,27.563-19.477,37.777-35.291v12.607l-0.001,0.022
	c0,0.945,0.767,1.712,1.713,1.712c0.944,0,1.712-0.767,1.712-1.712l0,0V47.338v-0.036l0,0c-0.02-0.928-0.775-1.674-1.708-1.677
	H149.043L149.043,45.625z M51.382,111.385v24.462h11.236v-24.462H51.382L51.382,111.385z M95.45,101.874v33.974h11.235v-33.974
	H95.45z"/>
</svg>
