<?xml version="1.0" encoding="utf-8"?>
<!-- Generator: Adobe Illustrator 16.0.0, SVG Export Plug-In . SVG Version: 6.00 Build 0)  -->
<!DOCTYPE svg PUBLIC "-//W3C//DTD SVG 1.1//EN" "http://www.w3.org/Graphics/SVG/1.1/DTD/svg11.dtd">
<svg version="1.1" id="图层_1" xmlns="http://www.w3.org/2000/svg" xmlns:xlink="http://www.w3.org/1999/xlink" x="0px" y="0px"
	 width="203.316px" height="203.333px" viewBox="0 0 203.316 203.333" enable-background="new 0 0 203.316 203.333"
	 xml:space="preserve">
<path fill="#808080" d="M59.077,27.665h42.521c1.564,0,2.835,1.269,2.835,2.835c0,1.565-1.271,2.834-2.835,2.834H59.077
	c-1.564,0-2.834-1.269-2.834-2.834C56.243,28.934,57.512,27.665,59.077,27.665L59.077,27.665z M30.73,61.68
	c-1.565,0-2.834-1.269-2.834-2.834c0-1.565,1.269-2.834,2.834-2.834h99.213c1.564,0,2.835,1.269,2.835,2.834
	c0,1.565-1.271,2.834-2.835,2.834H30.73L30.73,61.68z M129.943,98.531c1.564,0,2.835,1.269,2.835,2.834
	c0,1.566-1.271,2.835-2.835,2.835H30.73c-1.565,0-2.834-1.269-2.834-2.835c0-1.565,1.269-2.834,2.834-2.834H129.943L129.943,98.531z
	 M30.73,146.72c-1.565,0-2.834-1.269-2.834-2.834c0-1.566,1.269-2.835,2.834-2.835h98.67c1.564,0,2.835,1.269,2.835,2.835
	c0,1.565-1.271,2.834-2.835,2.834H30.73L30.73,146.72z M161.233,144.293V90.167l0,0v-5.669l0,0V8.504
	c0-2.334-0.956-4.458-2.495-5.997l-0.012-0.011C157.188,0.957,155.063,0,152.729,0H8.504C6.17,0,4.046,0.957,2.507,2.496
	L2.496,2.507C0.956,4.046,0,6.17,0,8.504v163.648c0,8.578,3.507,16.374,9.157,22.024s13.446,9.156,22.024,9.156h98.872
	c0.213,0,0.593-0.011,1.131-0.029c0.388-0.014,0.708-0.029,0.958-0.045h39.994c8.576,0,16.374-3.508,22.022-9.158
	c5.65-5.65,9.157-13.446,9.157-22.023v-56.398c0-8.578-3.507-16.374-9.157-22.024c-5.649-5.65-13.446-9.157-22.022-9.157h-10.336
	v5.669h10.336c7.013,0,13.391,2.871,18.016,7.496c4.625,4.625,7.496,11.002,7.496,18.016v56.398c0,7.014-2.871,13.391-7.496,18.016
	s-11.003,7.496-18.016,7.496h-40.03l-0.199,0.012c-0.409,0.029-0.717,0.048-0.923,0.056c-0.146,0.007-0.453,0.009-0.931,0.009
	H31.181c-7.014,0-13.392-2.871-18.017-7.496s-7.496-11.002-7.496-18.017V8.504c0-0.781,0.317-1.491,0.829-2.005
	C7.012,5.987,7.722,5.67,8.503,5.67h144.227c0.781,0,1.491,0.317,2.006,0.829c0.512,0.515,0.829,1.225,0.829,2.005v78.828v2.835
	v54.126c0,1.565,1.269,2.834,2.834,2.834C159.965,147.127,161.233,145.859,161.233,144.293z"/>
</svg>
