<?xml version="1.0" encoding="utf-8"?>
<!-- Generator: Adobe Illustrator 16.0.0, SVG Export Plug-In . SVG Version: 6.00 Build 0)  -->
<!DOCTYPE svg PUBLIC "-//W3C//DTD SVG 1.1//EN" "http://www.w3.org/Graphics/SVG/1.1/DTD/svg11.dtd">
<svg version="1.1" id="图层_1" xmlns="http://www.w3.org/2000/svg" xmlns:xlink="http://www.w3.org/1999/xlink" x="0px" y="0px"
	 width="146.068px" height="203.369px" viewBox="0 0 146.068 203.369" enable-background="new 0 0 146.068 203.369"
	 xml:space="preserve">
<path fill="#808080" d="M75.009,125.83v10.778h27.871c1.565,0,2.835,1.27,2.835,2.836c0,1.564-1.27,2.834-2.835,2.834H75.009v20.26
	c0,1.564-1.27,2.834-2.835,2.834c-1.564,0-2.835-1.27-2.835-2.834v-20.26H41.468c-1.564,0-2.835-1.27-2.835-2.834
	c0-1.566,1.271-2.836,2.835-2.836h27.871v-10.758l-0.991-1.639H41.312c-1.565,0-2.834-1.27-2.834-2.835s1.269-2.834,2.834-2.834
	h23.604L45.149,85.889c-0.307-0.453-0.484-0.998-0.484-1.586c0-1.565,1.27-2.834,2.834-2.834c1.08,0,2.02,0.604,2.497,1.493
	l22.162,36.613l22.278-37.363c0.462-0.939,1.428-1.585,2.545-1.585c1.564,0,2.835,1.269,2.835,2.834
	c0,0.612-0.194,1.179-0.524,1.643l-19.938,33.44h23.526c1.565,0,2.835,1.27,2.835,2.834c0,1.566-1.27,2.835-2.835,2.835H75.973
	L75.009,125.83L75.009,125.83z M143.234,56.42c-1.566,0-2.835,1.269-2.835,2.834v112.935c0,7.013-2.871,13.39-7.496,18.015
	S121.9,197.7,114.888,197.7H31.181c-7.014,0-13.392-2.872-18.017-7.497s-7.496-11.002-7.496-18.015V59.105
	c0-1.565-1.27-2.834-2.835-2.834C1.269,56.271,0,57.54,0,59.105v113.083c0,8.576,3.507,16.373,9.157,22.022
	c5.649,5.649,13.446,9.157,22.023,9.157h83.707c8.576,0,16.374-3.508,22.022-9.157c5.65-5.649,9.157-13.446,9.157-22.022V59.255
	C146.068,57.689,144.8,56.42,143.234,56.42L143.234,56.42z M72.492,47.785L0,33.509v-2.328c0-8.578,3.507-16.374,9.157-22.024
	C14.807,3.507,22.604,0,31.181,0h83.707c8.576,0,16.374,3.507,22.022,9.157c5.65,5.65,9.157,13.446,9.157,22.024v2.328
	L73.034,47.892L72.492,47.785L72.492,47.785z M5.773,28.874l67.261,13.245l67.261-13.245c-0.554-6.099-3.278-11.596-7.392-15.708
	C128.278,8.541,121.9,5.67,114.887,5.67H31.181c-7.014,0-13.392,2.871-18.017,7.496C9.053,17.278,6.327,22.775,5.773,28.874z"/>
</svg>
