<?xml version="1.0" encoding="utf-8"?>
<!-- Generator: Adobe Illustrator 16.0.0, SVG Export Plug-In . SVG Version: 6.00 Build 0)  -->
<!DOCTYPE svg PUBLIC "-//W3C//DTD SVG 1.1//EN" "http://www.w3.org/Graphics/SVG/1.1/DTD/svg11.dtd">
<svg version="1.1" id="图层_1" xmlns="http://www.w3.org/2000/svg" xmlns:xlink="http://www.w3.org/1999/xlink" x="0px" y="0px"
	 width="156.682px" height="203.371px" viewBox="0 0 156.682 203.371" enable-background="new 0 0 156.682 203.371"
	 xml:space="preserve">
<path fill="#808080" d="M155.464,15.471c0.805,0.804,1.206,1.871,1.207,2.942h0.011c0,1.064-0.407,2.133-1.218,2.943L78.735,98.085
	l-8.904,2.92l3.028-8.816l76.721-76.719h0.011c0.813-0.811,1.875-1.217,2.933-1.217C153.585,14.253,154.652,14.659,155.464,15.471
	L155.464,15.471z M144.734,56.881c-1.563,0-2.834,1.269-2.834,2.834v112.473c0,7.016-2.871,13.393-7.496,18.018
	s-11.003,7.496-18.017,7.496H31.182c-7.014,0-13.392-2.871-18.017-7.496s-7.496-11.002-7.496-18.018V31.182
	c0-7.014,2.871-13.391,7.496-18.016S24.168,5.67,31.182,5.67h85.206c1.565,0,2.835-1.269,2.835-2.835
	c0-1.565-1.27-2.834-2.835-2.834H31.182C22.604,0,14.807,3.507,9.156,9.157C3.507,14.807,0,22.604,0,31.182v141.007
	c0,8.578,3.507,16.375,9.154,22.022c5.65,5.649,13.447,9.158,22.025,9.158h85.206c8.577,0,16.374-3.509,22.024-9.158
	c5.648-5.649,9.155-13.444,9.155-22.022V59.716C147.569,58.15,146.3,56.881,144.734,56.881z"/>
</svg>
