<?xml version="1.0" encoding="utf-8"?>
<!-- Generator: Adobe Illustrator 16.0.0, SVG Export Plug-In . SVG Version: 6.00 Build 0)  -->
<!DOCTYPE svg PUBLIC "-//W3C//DTD SVG 1.1//EN" "http://www.w3.org/Graphics/SVG/1.1/DTD/svg11.dtd">
<svg version="1.1" id="图层_1" xmlns="http://www.w3.org/2000/svg" xmlns:xlink="http://www.w3.org/1999/xlink" x="0px" y="0px"
	 width="193.085px" height="204.516px" viewBox="0 0 193.085 204.516" enable-background="new 0 0 193.085 204.516"
	 xml:space="preserve">
<path fill="#808080" d="M16.735,25.795c17.291,1.102,32.459-0.321,45.464-4.314c12.87-3.953,23.643-10.435,32.277-19.489L96.375,0
	l2.042,1.848c10.347,9.348,22.016,15.966,34.965,19.938c12.981,3.982,27.289,5.307,42.878,4.062l2.245-0.18l0.678,2.161
	c15.592,49.756,18.693,87.128,6.113,115.533c-12.649,28.558-40.904,47.737-87.963,60.943l-0.751,0.211l-0.765-0.211
	c-46.85-12.928-75.161-31.886-87.904-60.409c-12.679-28.378-9.708-65.904,5.943-116.117l0.662-2.124L16.735,25.795L16.735,25.795z
	 M99.385,139.494l0.003-15.063l21.184,0.004c0.082,0.007,0.165,0.011,0.25,0.011c1.565,0,2.834-1.269,2.834-2.834
	s-1.269-2.834-2.834-2.834c-0.084,0-0.167,0.004-0.249,0.011l-21.184-0.003l0.001-7.752l0.521-0.872l20.664,0.003
	c0.082,0.007,0.166,0.011,0.25,0.011c1.564,0,2.834-1.27,2.834-2.835c0-1.564-1.27-2.834-2.834-2.834
	c-0.084,0-0.168,0.005-0.25,0.012l-17.297-0.003l15.201-25.484c0.33-0.463,0.523-1.03,0.523-1.643c0-1.566-1.27-2.835-2.834-2.835
	c-1.116,0-2.082,0.646-2.545,1.585l-17.071,28.619L79.579,76.703c-0.478-0.889-1.417-1.493-2.497-1.493
	c-1.565,0-2.835,1.27-2.835,2.834c0,0.587,0.179,1.134,0.485,1.585l15.053,24.88l-17.347-0.003c-0.082-0.007-0.166-0.011-0.25-0.011
	c-1.565,0-2.834,1.27-2.834,2.834c0,1.565,1.269,2.835,2.834,2.835c0.084,0,0.167-0.004,0.249-0.011l20.766,0.003l0.54,0.894
	l-0.001,7.731l-21.433-0.004v5.646l21.432,0.005l-0.003,15.42c0,1.565,1.27,2.835,2.835,2.835c1.565,0,2.835-1.27,2.835-2.835
	C99.408,139.729,99.4,139.611,99.385,139.494L99.385,139.494z M134.187,143.509c-0.857,0-1.626,0.381-2.146,0.981
	c-4.629,4.584-10.133,8.279-16.236,10.804c-5.952,2.462-12.475,3.82-19.308,3.82l-0.001-0.011v0.011
	c-13.94-0.002-26.562-5.656-35.696-14.793c-9.141-9.146-14.793-21.772-14.792-35.713l0.011-0.002h-0.011
	c0.002-13.941,5.656-26.563,14.794-35.697c9.144-9.141,21.772-14.794,35.713-14.792l0.001,0.011v-0.011
	c13.941,0.002,26.563,5.656,35.697,14.793c9.141,9.146,14.793,21.772,14.791,35.715c0,1.748-0.094,3.521-0.28,5.309
	c-0.175,1.677-0.438,3.36-0.79,5.046c-0.066,0.24-0.102,0.493-0.102,0.753c0,1.564,1.27,2.834,2.834,2.834
	c1.426,0,2.604-1.051,2.806-2.42c0.386-1.847,0.678-3.729,0.877-5.639c0.2-1.928,0.303-3.893,0.303-5.884
	c0.003-15.506-6.276-29.543-16.431-39.701c-10.16-10.164-24.198-16.451-39.705-16.454l-0.001-0.012v0.012
	c-15.506-0.004-29.542,6.275-39.7,16.43C46.652,79.061,40.363,93.1,40.361,108.606l-0.011,0.002h0.011
	c-0.002,15.505,6.277,29.542,16.431,39.699c10.16,10.164,24.198,16.451,39.704,16.455l0.001,0.011v-0.011
	c7.602,0.001,14.849-1.508,21.456-4.24c6.807-2.816,12.934-6.926,18.072-12.021c0.61-0.52,0.996-1.293,0.996-2.157
	C137.021,144.778,135.751,143.509,134.187,143.509L134.187,143.509z M148.224,130.517c0.145-0.338,0.255-0.602,0.329-0.784
	l0.276-0.721c0.192-0.383,0.301-0.814,0.301-1.272c0-1.565-1.27-2.834-2.834-2.834c-1.287,0-2.371,0.856-2.719,2.029l-0.572,1.394
	c-0.188,0.38-0.297,0.81-0.297,1.262c0,1.566,1.271,2.834,2.836,2.834C146.787,132.425,147.839,131.627,148.224,130.517
	L148.224,130.517z M63.86,26.883c-13.108,4.025-28.205,5.573-45.253,4.688c-14.665,47.813-17.415,83.426-5.533,110.02
	c11.923,26.688,38.825,44.61,83.484,57.052c44.865-12.708,71.72-30.84,83.556-57.563c11.794-26.623,8.931-62.077-5.667-109.423
	c-15.408,1.001-29.664-0.461-42.726-4.468c-12.892-3.955-24.589-10.386-35.058-19.367C87.689,16.585,76.743,22.926,63.86,26.883z"/>
</svg>
