<?xml version="1.0" encoding="utf-8"?>
<!-- Generator: Adobe Illustrator 16.0.0, SVG Export Plug-In . SVG Version: 6.00 Build 0)  -->
<!DOCTYPE svg PUBLIC "-//W3C//DTD SVG 1.1//EN" "http://www.w3.org/Graphics/SVG/1.1/DTD/svg11.dtd">
<svg version="1.1" id="图层_1" xmlns="http://www.w3.org/2000/svg" xmlns:xlink="http://www.w3.org/1999/xlink" x="0px" y="0px"
	 width="197.652px" height="197.652px" viewBox="0 0 197.652 197.652" enable-background="new 0 0 197.652 197.652"
	 xml:space="preserve">
<path fill="#808080" d="M98.826,0c54.58,0,98.826,44.246,98.826,98.826s-44.246,98.826-98.826,98.826S0,153.406,0,98.826
	S44.246,0,98.826,0L98.826,0z M59.901,80.223c-1.04-1.209-2.58-1.976-4.3-1.976c-3.131,0-5.669,2.538-5.669,5.669
	c0,1.721,0.765,3.259,1.973,4.299l46.919,46.938l73.59-73.563c1.209-1.04,1.976-2.579,1.976-4.3c0-3.131-2.538-5.669-5.669-5.669
	c-1.72,0-3.26,0.766-4.3,1.974l-65.593,65.569L59.901,80.223z"/>
</svg>
